<svg width="199" height="40" viewBox="0 0 199 40" fill="none" xmlns="http://www.w3.org/2000/svg">
<path d="M190.061 17.0492L198.353 7.90164H192.175L185.385 15.5137V7.90164H180.471V27.1175H185.385V19.0301L192.653 27.1175H199L190.061 17.0492Z" fill="#EA2119"/>
<path d="M171.808 15.0683H165.018V7.90164H160.101V27.1175H165.018V19.541H171.808V27.1175H176.721V7.90164H171.808V15.0683Z" fill="#EA2119"/>
<path d="M29.1754 18.3115C29.0579 21.8962 28.5963 22.612 26.5807 22.612V27.1175H27.3318C32.3546 27.1175 33.5618 24.5219 33.7475 18.7541L33.9524 12.3716H38.6611V27.1175H43.5746V7.90164H29.5168L29.1754 18.3115Z" fill="#EA2119"/>
<path d="M55.7888 13.735L52.2409 13.7377V7.89891H47.3274V27.1175H55.8571C61.2159 27.1175 63.125 23.6366 63.125 20.3579C63.125 16.1257 60.462 13.735 55.7888 13.735ZM55.4146 22.8825H52.2409V18.0027H55.4146C57.1217 18.0027 58.1432 18.7541 58.1432 20.3579C58.1432 22.0984 57.1545 22.8825 55.4146 22.8825Z" fill="#EA2119"/>
<path d="M79.1275 7.45628V0.322404H74.2139V7.45628C68.5848 7.93443 64.7965 11.929 64.7965 17.4918C64.7965 23.0546 68.5848 27.0847 74.2139 27.5628V34.8005H79.1275V27.5628C84.7566 27.1202 88.5449 23.0902 88.5449 17.4918C88.5449 11.8934 84.7566 7.89891 79.1275 7.45628ZM74.2139 22.9208C71.4854 22.5464 69.7784 20.4973 69.7784 17.4945C69.7784 14.4918 71.4854 12.4426 74.2139 12.0683V22.9208ZM79.1275 22.918V12.0656C81.856 12.4426 83.5631 14.4891 83.5631 17.4918C83.5631 20.4945 81.856 22.5437 79.1275 22.918Z" fill="#EA2119"/>
<path d="M106.97 21.2131H106.973V14.7623C106.973 10.0519 103.971 7.08197 98.921 7.08197C93.8709 7.08197 90.9375 10.224 90.6971 13.5H95.679C95.8483 12.7842 96.5994 11.5546 98.921 11.5546C100.833 11.5546 102.059 12.4426 102.059 14.7623H97.1784C92.8111 14.7623 90.2164 17.0492 90.2164 20.8716C90.2164 24.694 93.0542 27.5956 97.1429 27.5956C100.142 27.5956 101.808 26.1776 102.534 25.1038C103.182 26.4016 104.616 27.1175 106.492 27.1175H108.199V22.6803C107.311 22.6803 106.97 22.2705 106.97 21.2131ZM102.056 19.9508C102.056 22.1694 100.486 23.4317 98.4403 23.4317C96.6649 23.4317 95.2665 22.7842 95.2665 20.8716C95.2665 18.959 96.8015 18.6885 98.1316 18.6885H102.056V19.9508Z" fill="#EA2119"/>
<path d="M128.031 10.6311H122.535V5.20492H135.263V0.322404H117.384V27.1175H128.031C133.933 27.1175 137.312 24.1831 137.312 18.7896C137.312 13.7049 133.933 10.6311 128.031 10.6311ZM127.793 22.2678L122.538 22.2705V15.306H127.793C130.522 15.306 132.059 16.5683 132.059 18.7869C132.059 21.0055 130.524 22.2678 127.793 22.2678Z" fill="#EA2119"/>
<path d="M156.108 21.2131H156.111V14.7623C156.111 10.0519 153.109 7.08197 148.059 7.08197C143.009 7.08197 140.076 10.224 139.835 13.5H144.817C144.986 12.7842 145.738 11.5546 148.059 11.5546C149.971 11.5546 151.197 12.4426 151.197 14.7623H146.317C141.949 14.7623 139.355 17.0492 139.355 20.8716C139.355 24.694 142.192 27.5956 146.281 27.5956C149.28 27.5956 150.946 26.1776 151.673 25.1038C152.32 26.4016 153.754 27.1175 155.63 27.1175H157.337V22.6803C156.45 22.6803 156.108 22.2705 156.108 21.2131ZM151.195 19.9508C151.195 22.1694 149.624 23.4317 147.578 23.4317C145.803 23.4317 144.405 22.7842 144.405 20.8716C144.405 18.959 145.94 18.6885 147.27 18.6885H151.195V19.9508Z" fill="#EA2119"/>
<path d="M26.2748 34.5383H0V40H26.2748V34.5383Z" fill="#EA2119"/>
<path d="M7.81415 21.623H18.1875L19.9273 27.1175H25.6602L17.9144 4C17.1633 1.76503 16.3002 0 13.3422 0C10.3843 0 9.46383 1.75683 8.67723 4L0.546253 27.1175H5.93777L7.81415 21.623ZM13.0691 6.02459H13.2057L16.6853 16.9809H9.38463L13.0691 6.02459Z" fill="#EA2119"/>
</svg>
