<svg width="210" height="40" viewBox="0 0 210 40" fill="none" xmlns="http://www.w3.org/2000/svg">
<path d="M75.5212 0.651895C80.0715 0.651895 83.683 1.73996 86.3557 3.9257C89.0284 6.10665 90.3647 8.72858 90.3647 13.0521C90.3647 17.3757 89.0379 20.3619 86.3796 22.5428C83.7261 24.7238 79.7793 25.8167 75.4924 25.8167H66.866V39.4296H58.048V0.651895H75.5212ZM66.8756 8.09587V18.3391H73.6723C78.2992 18.3391 80.7708 17.0401 80.7708 13.1672C80.7708 9.29419 78.3184 8.09587 73.7298 8.09587H66.8756Z" fill="#1D1D1B"/>
<path d="M130.996 24.8053C130.541 29.8909 128.654 32.1869 125.55 35.1875C122.442 38.1833 118.648 40 113.226 40C107.349 40 102.617 38.6914 99.0342 34.7993C95.4515 30.9119 93.502 25.7591 93.502 19.3457C93.502 13.2726 95.3125 9.4236 98.9336 5.40203C102.555 1.38046 107.541 0 113.571 0C118.385 0 122.107 1.52427 125.368 4.25644C128.63 6.98862 130.431 10.7753 130.771 14.9934H122.384C121.929 12.7549 120.914 10.8616 119.343 9.62493C117.767 8.39306 115.784 7.13721 113.394 7.13721C111.004 7.13721 108.853 7.83224 107.167 9.2175C105.476 10.6028 104.451 12.1414 103.771 14.1546C103.038 16.3116 102.904 17.8023 102.904 20.036C102.904 23.7891 103.551 26.272 105.491 28.7597C107.426 31.2474 110.022 32.4889 113.284 32.4889C117.7 32.4889 121.642 29.6129 122.241 24.8053H131.001H130.996Z" fill="#1D1D1B"/>
<path d="M170.182 0.651851L160.166 18.9334L171.561 39.3577H161.555L153.365 24.0287L151.746 23.9856L143.484 39.3577H133.516L144.964 18.9334L134.781 0.651851H144.82L152.225 14.4997H153.025L160.401 0.651851H170.182Z" fill="#1D1D1B"/>
<path d="M186.133 15.1659H195.607C199.894 15.1659 203.361 15.4631 206.02 17.644C208.673 19.825 210 22.0922 210 26.3438C210 30.5955 208.664 33.922 205.986 36.1078C203.313 38.2887 199.702 39.3816 195.152 39.3576H177.156V0.651822H207.193V8.0958H186.133V15.1659ZM200.478 26.2288C200.478 24.0479 198.404 21.6896 195.046 21.6896H186.133V31.6117H195.104C198.845 31.6117 200.478 28.8651 200.478 26.224" fill="#1D1D1B"/>
<path d="M42.3703 0.651822H26.9088V39.3624H42.3703V0.651822Z" fill="#1F7E35"/>
<path d="M22.8944 0.651822H11.4468V39.3624H22.8944V0.651822Z" fill="#AFCA0B"/>
<path d="M7.73072 0.651822H0V39.3576H7.73072V0.651822Z" fill="#FFCC00"/>
<path d="M46.7192 4.47699C46.1684 4.47699 45.699 4.29484 45.311 3.92097C44.9183 3.5423 44.7171 3.06776 44.7171 2.50216C44.7171 1.93655 44.9135 1.4764 45.3062 1.09773C45.699 0.723849 46.1684 0.536905 46.7192 0.536905C47.2701 0.536905 47.7299 0.728647 48.1226 1.10252C48.5154 1.48119 48.707 1.94613 48.707 2.50216C48.707 3.05818 48.5154 3.54231 48.1274 3.91618C47.7395 4.29485 47.2701 4.47699 46.7192 4.47699ZM45.1147 2.50216C45.1147 2.9719 45.2679 3.36494 45.5745 3.6813C45.881 3.99766 46.2642 4.15105 46.7192 4.15105C47.1743 4.15105 47.5479 3.99766 47.8544 3.6813C48.1562 3.36974 48.3094 2.97669 48.3094 2.50216C48.3094 2.02762 48.1562 1.65375 47.8496 1.33739C47.5431 1.02583 47.1647 0.867643 46.7144 0.867643C46.2642 0.867643 45.881 1.02583 45.5745 1.33739C45.2631 1.64895 45.1099 2.042 45.1099 2.50216M47.3946 2.87123H47.749C47.7011 3.13486 47.5862 3.33619 47.4138 3.48957C47.2365 3.63816 47.0258 3.71486 46.7815 3.71486C46.4318 3.71486 46.154 3.59981 45.9385 3.36494C45.723 3.13486 45.6176 2.84248 45.6176 2.49257C45.6176 2.14266 45.7182 1.85027 45.9241 1.62499C46.1253 1.39971 46.4079 1.28945 46.7575 1.28945C47.0162 1.28945 47.2365 1.36136 47.4185 1.50516C47.6005 1.65375 47.7107 1.85027 47.7443 2.1139H47.3946C47.3611 1.96531 47.2892 1.85026 47.179 1.76399C47.0689 1.67771 46.93 1.62977 46.7671 1.62977C46.5276 1.62977 46.3456 1.71126 46.2163 1.87424C46.087 2.03241 46.0199 2.24332 46.0199 2.49257C46.0199 2.74183 46.087 2.94794 46.2259 3.12049C46.3648 3.28826 46.5516 3.37454 46.7815 3.37454C46.9444 3.37454 47.0833 3.3314 47.1934 3.24033C47.3036 3.15405 47.3706 3.03421 47.3946 2.88083" fill="#1F7E35"/>
</svg>
