<svg width="112" height="40" viewBox="0 0 112 40" fill="none" xmlns="http://www.w3.org/2000/svg">
<path fill-rule="evenodd" clip-rule="evenodd" d="M7.62416 0L5.71693 5.23233H32.1469L34.0541 0H7.62416ZM4.76272 7.8473L2.85549 13.0784H29.2854L31.1927 7.8473H4.76272ZM1.90723 15.6946L0 20.9257H26.43L28.336 15.6946H1.90723Z" fill="#009FDF"/>
<path fill-rule="evenodd" clip-rule="evenodd" d="M56.1861 22.9197V23.0301C57.3939 23.4742 58.5477 24.2506 59.1523 24.7492C61.0199 26.3021 61.8444 28.3535 61.8444 31.0152C61.8444 35.3972 59.5368 38.5575 55.7462 39.556C54.5924 39.8884 53.3846 40 51.1311 40H39.651V7.94798H49.8139C51.9015 7.94798 53.3293 8.05838 54.5924 8.39079C58.2737 9.38923 60.6906 11.9405 60.6906 15.9877C60.6906 18.1508 59.9214 19.9814 58.6583 21.2007C58.109 21.7551 57.3399 22.4211 56.1861 22.9197ZM46.0232 26.3021V34.7312H50.4184C51.7356 34.7312 52.9447 34.6208 53.8245 33.7886C54.703 32.9563 55.0876 31.9033 55.0876 30.5166C55.0876 29.4636 54.8124 28.4652 54.2631 27.7445C53.3293 26.5799 52.1755 26.3021 50.1985 26.3021H46.0232ZM45.968 20.7567H49.5387C50.6371 20.7567 51.1864 20.7567 51.7356 20.5904C53.2199 20.1464 54.1538 18.8168 54.1538 16.9861C54.1538 14.8242 53.1646 13.8804 51.7356 13.4376C51.1311 13.2714 50.5278 13.2156 49.3187 13.2156H45.968V20.7567ZM71.4027 40V13.326H62.229V7.94798H87.719L85.9066 13.326H77.7749V40H71.4027ZM89.6961 40V7.94798H110.352L108.54 13.326H96.0142V20.4242H101.123C105.243 20.4242 107.386 21.4227 108.869 22.6977C110.023 23.6962 112 25.9139 112 30.2958C112 34.6208 109.968 37.0047 108.265 38.2251C106.288 39.6106 104.2 40 99.9695 40H89.6961ZM96.0142 34.6208H100.794C102.606 34.6208 103.705 34.1768 104.474 33.1783C104.859 32.6797 105.408 31.7917 105.408 30.1284C105.408 28.4652 104.859 27.3005 103.76 26.4683C103.102 25.9697 102.222 25.6931 100.739 25.6931H96.0142V34.6208Z" fill="#0A2973"/>
</svg>
