<svg width="171" height="60" viewBox="0 0 171 60" fill="none" xmlns="http://www.w3.org/2000/svg">
<path d="M55.2146 2.358e-06V0.0111052L49.8723 5.30592V2.358e-06H44.5282L35.6235 8.82324V31.764H39.1854V10.5885L46.31 3.52956V31.764H49.8723V10.5885L56.9957 3.52956V31.764H60.558V2.358e-06H55.2146Z" fill="#1E2321"/>
<path d="M0.00215215 31.764H14.2509V0H8.90679L0 8.82344L0.00215215 8.82549V31.764ZM10.6885 3.52956V28.2345H3.56448V10.5881L10.6885 3.52956Z" fill="#1E2321"/>
<path d="M32.0607 0.000202561H17.8125V31.764H32.0607V0.000202561ZM21.3743 3.52958H28.4985V28.235H21.3743V3.52958Z" fill="#1E2321"/>
<path d="M0.00292968 38.8244H60.5589V35.2948H0.00292968V38.8244Z" fill="#1E2321"/>
<path d="M0.00292968 42.3536V60H3.56526V56.471H24.938V42.3536H0.00292968ZM21.3757 52.9415H3.56526V45.8831H21.3757V52.9415Z" fill="#1E2321"/>
<path d="M28.5 42.3536V56.471H42.7488V60H46.3105V56.471H60.5592V42.3536H28.5ZM32.0618 45.8831H42.7482V52.9415H32.0618V45.8831ZM56.9968 52.9415H46.3105V45.8831H56.9968V52.9415Z" fill="#1E2321"/>
<path d="M116.843 39.7034H110.442V23.8249H121.019V26.5897H113.564V29.8002H116.843C120.054 29.8002 122.029 31.8545 122.029 34.7521C122.029 37.6523 120.076 39.7034 116.843 39.7034ZM116.686 32.5672H113.564V36.9397H116.686C118.077 36.9397 118.908 36.0697 118.908 34.7521C118.908 33.4599 118.077 32.5672 116.686 32.5672Z" fill="#1E2321"/>
<path d="M135.374 39.7034L134.43 36.8947H128.749L127.782 39.7034H124.528L130.344 23.8249H132.791L138.629 39.7034H135.374ZM131.646 28.5086L129.624 34.2843H133.598L131.646 28.5086Z" fill="#1E2321"/>
<path d="M150.436 39.7034V33.0561H145.025V39.7034H141.905V23.8249H145.025V30.3135H150.436V23.8249H153.56V39.7034H150.436Z" fill="#1E2321"/>
<path d="M158.448 39.7034V23.8249H161.568V31.3634L166.734 23.8249H170.463L165.095 31.275L171 39.7034H167.184L161.568 31.4067V39.7034H158.448Z" fill="#1E2321"/>
<path d="M89.0542 59.9942H85.4926V0.00910198H89.0542V59.9942Z" fill="#7FCB2C"/>
</svg>
