<svg width="79" height="60" viewBox="0 0 79 60" fill="none" xmlns="http://www.w3.org/2000/svg">
<path d="M20.2513 16.1728C19.9669 16.1728 19.7932 16.3477 19.7932 16.6658V19.1625H15.9862V16.6658C15.9862 16.3477 15.8124 16.1728 15.5281 16.1728C15.2437 16.1728 15.07 16.3477 15.07 16.6658V22.6928C15.07 23.0109 15.2437 23.1858 15.5281 23.1858C15.8124 23.1858 15.9862 23.0109 15.9862 22.6928V20.0212H19.7932V22.6928C19.7932 23.0109 19.9669 23.1858 20.2513 23.1858C20.5356 23.1858 20.7094 23.0109 20.7094 22.6928V16.6658C20.6936 16.3477 20.5356 16.1728 20.2513 16.1728ZM24.9429 19.5918L27.5809 16.9202C27.7073 16.793 27.7547 16.6976 27.7547 16.5545C27.7547 16.3477 27.6125 16.1728 27.3598 16.1728C27.2334 16.1728 27.1228 16.2205 27.0122 16.3318L24.4216 18.9398C24.2794 19.083 24.1373 19.1625 23.9319 19.1625H23.3948V16.6658C23.3948 16.3477 23.221 16.1728 22.9367 16.1728C22.6524 16.1728 22.4786 16.3477 22.4786 16.6658V22.6928C22.4786 23.0109 22.6524 23.1858 22.9367 23.1858C23.221 23.1858 23.3948 23.0109 23.3948 22.6928V20.0212H23.8687C24.0741 20.0212 24.2162 20.1007 24.3584 20.2438L27.107 23.0109C27.2334 23.1381 27.3282 23.1699 27.4703 23.1699C27.7231 23.1699 27.8811 22.9791 27.8811 22.7564C27.8811 22.6133 27.8179 22.502 27.6915 22.3589L24.9429 19.5918ZM30.6455 7.87172C30.2348 8.09435 29.6661 8.23748 29.129 8.23748C28.2444 8.23748 27.6915 7.85582 27.6915 7.17201C27.6915 6.56772 28.1654 6.09064 29.129 6.09064C29.6345 6.09064 30.0926 6.17016 30.6455 6.32918V7.87172ZM29.2554 2.27405C28.4813 2.27405 27.7863 2.46488 27.344 2.65571C26.9648 2.81474 26.8069 3.02147 26.8069 3.32362C26.8069 3.67347 27.0754 3.92791 27.3914 3.92791C27.5493 3.92791 27.7231 3.8643 27.8969 3.80069C28.1812 3.68937 28.6709 3.56215 29.1448 3.56215C30.2032 3.56215 30.6455 3.95971 30.6455 4.78664V5.34323C30.0294 5.1842 29.5397 5.10469 28.9552 5.10469C27.2176 5.10469 26.3646 6.10655 26.3646 7.20382C26.3646 8.47601 27.3124 9.43016 29.0026 9.43016C30.3137 9.43016 31.3089 8.98489 31.7196 8.71455C31.9092 8.58733 31.9724 8.46011 31.9724 8.18977V4.80254C31.9882 3.06918 30.993 2.27405 29.2554 2.27405ZM45.9208 6.77445C45.6049 6.77445 45.4311 6.96528 45.3205 7.17201C45.0836 7.69679 44.5781 8.06255 43.883 8.06255C42.9036 8.06255 42.3192 7.47416 42.2402 6.58362C42.1928 6.10655 42.1928 5.56586 42.2402 5.10469C42.3192 4.23006 42.9036 3.62576 43.883 3.62576C44.5781 3.62576 45.0836 3.99152 45.3205 4.5163C45.4469 4.72303 45.6207 4.91386 45.9208 4.91386C46.3157 4.91386 46.6001 4.65942 46.6001 4.27776C46.6001 4.07103 46.5211 3.8643 46.3947 3.64166C45.984 2.89425 45.1152 2.27405 43.8514 2.27405C42.1454 2.27405 41.0081 3.35542 40.8659 4.89796C40.8185 5.40684 40.8185 6.26557 40.8659 6.77445C41.0081 8.31699 42.1454 9.39836 43.8514 9.39836C45.1152 9.39836 45.984 8.79406 46.3947 8.03075C46.5211 7.80811 46.5843 7.60138 46.5843 7.39465C46.5843 7.02889 46.3157 6.75855 45.9208 6.77445ZM14.8962 8.15796L12.5109 5.75669L14.7698 3.48264C14.9436 3.30771 15.0384 3.13279 15.0384 2.92605C15.0384 2.5921 14.8014 2.33766 14.4539 2.33766C14.2486 2.33766 14.1064 2.41717 13.9168 2.608L11.6263 4.91386C11.4999 5.04108 11.3736 5.10469 11.184 5.10469H10.7101V3.05327C10.7101 2.5921 10.4416 2.32176 10.0151 2.32176C9.58855 2.32176 9.32001 2.5921 9.32001 3.05327V8.58733C9.32001 9.0485 9.58855 9.31884 10.0151 9.31884C10.4416 9.31884 10.7101 9.0485 10.7101 8.58733V6.37689H11.105C11.2788 6.37689 11.421 6.4564 11.5473 6.56772L13.9958 9.0326C14.2012 9.23933 14.3591 9.31884 14.5645 9.31884C14.9278 9.31884 15.1806 9.06441 15.1806 8.69865C15.1648 8.52372 15.07 8.33289 14.8962 8.15796ZM38.1489 6.58362C38.0699 7.45826 37.517 8.06255 36.5218 8.06255C36.0005 8.06255 35.3529 7.90353 35.0369 7.68089V4.00742C35.3529 3.78479 36.0005 3.60986 36.5218 3.60986C37.517 3.60986 38.0699 4.21415 38.1489 5.08879C38.1805 5.54996 38.1963 6.10655 38.1489 6.58362ZM36.5692 2.27405C35.3687 2.27405 34.3893 2.70342 34.0101 2.94196C33.6942 3.13279 33.6626 3.27591 33.6626 3.81659V10.9091C33.6626 11.3703 33.9312 11.6406 34.3577 11.6406C34.7842 11.6406 35.0527 11.3703 35.0527 10.9091V9.06441C35.4634 9.27114 36.0953 9.41426 36.6956 9.41426C38.291 9.41426 39.381 8.34879 39.539 6.80626C39.5864 6.28147 39.5864 5.42274 39.539 4.89796C39.381 3.33952 38.2752 2.27405 36.5692 2.27405ZM12.4951 21.9136C11.9896 22.1839 11.2946 22.3907 10.6627 22.3907C9.52537 22.3907 8.87771 21.8977 8.87771 21.0708C8.87771 20.3234 9.44638 19.7509 10.6627 19.7509C11.263 19.7509 11.7685 19.8463 12.4951 20.053V21.9136ZM10.8681 16.1092C10.0783 16.1092 9.30422 16.3318 8.87771 16.5227C8.59337 16.6499 8.46699 16.7771 8.46699 16.9997C8.46699 17.2383 8.65655 17.4132 8.87771 17.4132C8.98828 17.4132 9.11466 17.3655 9.24103 17.3019C9.55696 17.1588 10.173 16.9838 10.7733 16.9838C11.958 16.9838 12.4951 17.4609 12.4951 18.5423V19.1784C11.7527 18.9557 11.2156 18.8921 10.5837 18.8921C8.86191 18.8921 7.9773 19.894 7.9773 21.0231C7.9773 22.343 8.97249 23.2176 10.5364 23.2176C11.8317 23.2176 12.8269 22.7564 13.1902 22.4861C13.3324 22.3748 13.3797 22.2953 13.3797 22.0885V18.5105C13.3955 16.8884 12.4477 16.1092 10.8681 16.1092ZM4.2177 22.2157H1.64285V18.5264H4.2177C5.57621 18.5264 6.12909 19.1943 6.12909 20.3393C6.1133 21.5319 5.56041 22.2157 4.2177 22.2157ZM4.32828 17.6517H1.62705V14.8052H6.12909C6.42923 14.8052 6.63458 14.6303 6.63458 14.344C6.63458 14.0737 6.42923 13.8988 6.12909 13.8988H1.51648C0.995188 13.8988 0.710848 14.185 0.710848 14.7098V22.2953C0.710848 22.82 1.01098 23.1063 1.51648 23.1063H4.32828C6.05011 23.1063 7.06109 22.0885 7.06109 20.3234C7.06109 18.5582 6.05011 17.6517 4.32828 17.6517ZM20.1881 4.91386H22.447C23.5212 4.91386 23.9951 5.47045 23.9951 6.40869C23.9951 7.34694 23.5212 7.95123 22.447 7.95123H20.1881V4.91386ZM19.8406 9.28704H22.605C24.39 9.28704 25.4484 8.23748 25.4484 6.37689C25.4484 4.62762 24.39 3.64166 22.605 3.64166H20.1881V1.39942H24.232C24.6743 1.39942 24.9587 1.12908 24.9587 0.715611C24.9587 0.302147 24.6743 0.0477074 24.232 0.0477074H19.8406C19.1455 0.0477074 18.7664 0.429367 18.7664 1.12908V8.18977C18.7664 8.90538 19.1455 9.28704 19.8406 9.28704ZM2.68543 5.12059L3.94916 1.49483C3.99655 1.36761 4.04394 1.3199 4.13872 1.3199C4.2335 1.3199 4.28089 1.36761 4.31248 1.49483L5.57621 5.12059H2.68543ZM8.26164 8.68275C8.26164 8.55553 8.24584 8.42831 8.16686 8.23748L5.6078 1.22449C5.30767 0.365757 4.84957 0 4.13872 0C3.42787 0 2.96977 0.365757 2.66963 1.22449L0.0947798 8.23748C0.0157966 8.46011 0 8.58733 0 8.68275C0 9.0485 0.284339 9.35065 0.695052 9.35065C1.02678 9.35065 1.26373 9.19163 1.4059 8.77816L2.24312 6.39279H6.03431L6.87153 8.77816C6.99791 9.17572 7.25065 9.33475 7.56659 9.33475C7.9773 9.35065 8.26164 9.0485 8.26164 8.68275Z" fill="#170030"/>
<path d="M78.5408 45.4174C77.4193 42.555 74.6233 40.9807 71.6061 41.5372L65.4138 42.6504C64.3871 42.8412 63.7078 43.8272 63.8816 44.8609C64.0711 45.8945 65.0505 46.5783 66.0773 46.4034L72.2696 45.2902C73.7387 45.0199 74.6549 45.9104 75.0182 46.8328C75.3815 47.7551 75.3183 49.0273 74.0546 49.8383L64.9557 55.7699C64.1185 56.3265 63.0759 56.3583 62.2071 55.8813C61.3225 55.4042 60.8012 54.5137 60.8012 53.4959V34.2539C60.8012 33.2043 59.964 32.3456 58.9056 32.3456C57.8473 32.3456 57.01 33.2043 57.01 34.2539V53.4641C57.01 55.8972 58.2738 58.0281 60.3905 59.189C61.3699 59.7297 62.4283 60 63.4867 60C64.703 60 65.9193 59.6502 67.0093 58.9345L76.1082 53.0029C78.683 51.3332 79.6624 48.2799 78.5408 45.4174ZM46.5527 41.5213L40.3604 42.6345C39.3336 42.8253 38.6544 43.8113 38.8281 44.845C39.0177 45.8786 39.9971 46.5624 41.0238 46.3875L47.2161 45.2743C48.6852 45.004 49.6014 45.8945 49.9647 46.8169C50.3281 47.7392 50.2649 49.0114 49.0011 49.8224L39.9023 55.754C39.0651 56.3106 38.0225 56.3424 37.1537 55.8654C36.2691 55.3883 35.7478 54.4977 35.7478 53.48V38.8815C35.7478 36.4485 34.484 34.3175 32.3673 33.1566C30.2505 31.9958 27.7705 32.0912 25.7485 33.4111L2.89078 48.3276C0.315933 50.0133 -0.647662 53.0665 0.473899 55.929C1.59546 58.7914 4.39146 60.3658 7.40862 59.8092L27.3756 56.1993C28.4023 56.0085 29.0816 55.0225 28.9078 53.9889C28.7183 52.9552 27.7389 52.2714 26.7121 52.4463L6.74516 56.0562C5.27607 56.3265 4.35987 55.436 3.99655 54.5136C3.63322 53.5913 3.69641 52.3191 4.96014 51.5081L27.8179 36.5916C28.6551 36.035 29.6977 36.0032 30.5665 36.4803C31.4511 36.9573 31.9724 37.8479 31.9724 38.8656V53.4641C31.9724 55.8972 33.2361 58.0281 35.3529 59.189C36.3322 59.7297 37.3906 60 38.449 60C39.6653 60 40.8817 59.6502 41.9558 58.9345L51.0547 53.0029C53.6296 51.3173 54.5932 48.264 53.4716 45.4015C52.3658 42.5391 49.5698 40.9807 46.5527 41.5213Z" fill="#009C32"/>
</svg>
