<svg width="697" height="200" viewBox="0 0 697 200" fill="none" xmlns="http://www.w3.org/2000/svg">
<path d="M413.56 194.468H539.278L512.609 154.928H463.42V18.1679H413.56V194.468Z" fill="white"/>
<path d="M170.005 43.8648H219.865L237.899 0H177.125L170.005 43.8648Z" fill="white"/>
<path d="M53.9312 194.468H103.791V57.7099H151.117L157.534 18.1679H6.43205L0.015625 57.7099H53.9312V194.468Z" fill="white"/>
<path d="M170.005 194.468H219.865V56.2707H170.005V194.468Z" fill="white"/>
<path d="M322.544 18.1679H253.086L241.963 45.2226V194.468H291.59L291.823 76.6773V57.4592H319.522C340.171 57.4592 350.496 67.0289 350.496 83.4C350.496 99.5189 340.171 109.09 319.522 109.09H308.565V148.38H322.544C370.641 148.38 400.86 123.446 400.86 83.4C400.86 43.1032 370.641 18.1693 322.544 18.1693V18.1679Z" fill="white"/>
<path fill-rule="evenodd" clip-rule="evenodd" d="M603.125 12.2163C654.972 12.2163 697.002 54.253 697.002 106.109C697.002 157.963 654.972 200 603.125 200C551.279 200 509.249 157.963 509.249 106.109C509.249 54.253 551.279 12.2163 603.125 12.2163ZM552.665 116.99C550.069 102.235 551.912 92.5795 558.453 80.4337C564.814 68.6212 578.864 58.2086 592.224 55.8561C605.391 53.5375 613.541 54.6636 624.795 59.5447C626.311 60.2019 627.39 60.8998 628.774 61.6451C640.585 68.0073 650.995 82.0557 653.347 95.4225C655.036 105.026 654.966 110.806 652.782 119.558C651.397 125.111 648.431 131.031 645.136 135.733C644.223 137.035 643.689 137.91 642.589 139.126C639.41 142.634 636.697 145.556 632.743 148.307C622.871 155.174 611.351 158.367 599.158 157.6C584.304 156.665 569.436 148.155 560.913 135.947C557.792 131.479 553.884 123.922 552.664 116.99H552.665Z" fill="white"/>
<path d="M413.56 194.468H539.278L512.609 154.928H463.42V18.1679H413.56V194.468Z" fill="white"/>
<path d="M170.005 43.8648H219.865L237.899 0H177.125L170.005 43.8648Z" fill="white"/>
<path d="M53.9312 194.468H103.791V57.7099H151.117L157.534 18.1679H6.43205L0.015625 57.7099H53.9312V194.468Z" fill="white"/>
<path d="M170.005 194.468H219.865V56.2707H170.005V194.468Z" fill="white"/>
<path d="M322.544 18.1679H253.086L241.963 45.2226V194.468H291.59L291.823 76.6773V57.4592H319.522C340.171 57.4592 350.496 67.0289 350.496 83.4C350.496 99.5189 340.171 109.09 319.522 109.09H308.565V148.38H322.544C370.641 148.38 400.86 123.446 400.86 83.4C400.86 43.1032 370.641 18.1693 322.544 18.1693V18.1679Z" fill="white"/>
<path fill-rule="evenodd" clip-rule="evenodd" d="M603.125 12.2163C654.972 12.2163 697.002 54.253 697.002 106.109C697.002 157.963 654.972 200 603.125 200C551.279 200 509.249 157.963 509.249 106.109C509.249 54.253 551.279 12.2163 603.125 12.2163ZM552.665 116.99C550.069 102.235 551.912 92.5795 558.453 80.4337C564.814 68.6212 578.864 58.2086 592.224 55.8561C605.391 53.5375 613.541 54.6636 624.795 59.5447C626.311 60.2019 627.39 60.8998 628.774 61.6451C640.585 68.0073 650.995 82.0557 653.347 95.4225C655.036 105.026 654.966 110.806 652.782 119.558C651.397 125.111 648.431 131.031 645.136 135.733C644.223 137.035 643.689 137.91 642.589 139.126C639.41 142.634 636.697 145.556 632.743 148.307C622.871 155.174 611.351 158.367 599.158 157.6C584.304 156.665 569.436 148.155 560.913 135.947C557.792 131.479 553.884 123.922 552.664 116.99H552.665Z" fill="white"/>
</svg>
