<svg width="83" height="19" viewBox="0 0 83 19" fill="none" xmlns="http://www.w3.org/2000/svg">
<path d="M29.4005 13.8748H27.163L23.9794 4.87501H25.6288L28.1731 12.2918H28.4288L31.0627 4.87501H32.6864L29.4005 13.8748Z" fill="black"/>
<path d="M36.9463 9.21531L41.0888 13.8748H39.0687L35.6933 10.0195H35.3097V13.8748H33.7754V4.87501H35.3097V8.53874H35.6805L38.8769 4.87501H40.7692L36.9463 9.21531Z" fill="black"/>
<path d="M49.8907 9.25361C50.3766 9.39828 50.7559 9.65785 51.0287 10.0323C51.3099 10.3983 51.4506 10.8408 51.4506 11.3599C51.4506 11.8535 51.327 12.2918 51.0798 12.6748C50.8326 13.0492 50.4874 13.3429 50.0442 13.5556C49.6009 13.7684 49.0895 13.8748 48.5099 13.8748H44.7381V4.87501H48.2542C48.8253 4.87501 49.3324 4.98139 49.7757 5.19415C50.2189 5.3984 50.5641 5.68775 50.8113 6.06221C51.0585 6.43667 51.1821 6.85793 51.1821 7.326C51.1821 7.77705 51.067 8.17279 50.8369 8.5132C50.6067 8.85362 50.2914 9.10042 49.8907 9.25361ZM46.2724 6.2154V8.67916H48.2542C48.6633 8.67916 48.9957 8.56852 49.2515 8.34725C49.5072 8.11747 49.635 7.81961 49.635 7.45366C49.635 7.08771 49.5072 6.78985 49.2515 6.56007C48.9957 6.33029 48.6633 6.2154 48.2542 6.2154H46.2724ZM48.5099 12.5344C48.9105 12.5344 49.2387 12.4195 49.4944 12.1897C49.7501 11.9514 49.878 11.645 49.878 11.2706C49.878 10.9046 49.7501 10.6068 49.4944 10.377C49.2387 10.1387 48.9105 10.0195 48.5099 10.0195H46.2724V12.5344H48.5099Z" fill="black"/>
<path d="M54.9351 13.8748H52.851V7.23664H54.2574V12.1642H54.462L56.9424 7.23664H59.0265V13.8748H57.6201V8.94723H57.4155L54.9351 13.8748Z" fill="black"/>
<path d="M59.989 15.8534V12.5344H60.1552C60.8371 12.5344 61.2377 11.9003 61.3571 10.6323L61.6895 7.23664H66.5608V12.5344H67.7116V15.8534H66.2412V13.8748H61.4594V15.8534H59.989ZM65.0905 12.5344V8.57703H63.0448L62.8402 10.6068C62.7891 11.1259 62.7166 11.5344 62.6229 11.8323C62.5291 12.1301 62.397 12.3642 62.2265 12.5344H65.0905Z" fill="black"/>
<path d="M75.129 10.4791C75.129 10.6068 75.1205 10.7642 75.1035 10.9514H69.759C69.8272 11.4706 70.0403 11.8876 70.3983 12.2025C70.7563 12.5088 71.2123 12.662 71.7664 12.662C72.1414 12.662 72.4781 12.5897 72.7765 12.445C73.0833 12.3003 73.3177 12.1046 73.4797 11.8578L74.8605 12.0876C74.6219 12.7003 74.2085 13.1726 73.6203 13.5046C73.0407 13.8365 72.3929 14.0024 71.6769 14.0024C71.012 14.0024 70.4154 13.8577 69.8869 13.5684C69.367 13.2705 68.9578 12.862 68.6595 12.3429C68.3697 11.8152 68.2248 11.2195 68.2248 10.5557C68.2248 9.89189 68.3697 9.30042 68.6595 8.78128C68.9578 8.25364 69.367 7.84514 69.8869 7.55578C70.4154 7.25792 71.012 7.10899 71.6769 7.10899C72.3418 7.10899 72.9342 7.25792 73.4541 7.55578C73.9826 7.84514 74.3917 8.24938 74.6815 8.76852C74.9799 9.27914 75.129 9.84934 75.129 10.4791ZM71.6769 8.38555C71.2337 8.38555 70.8458 8.5132 70.5134 8.76852C70.1895 9.02383 69.9679 9.3685 69.8485 9.80253H73.5308C73.403 9.37701 73.1728 9.03659 72.8404 8.78128C72.5165 8.51746 72.1287 8.38555 71.6769 8.38555Z" fill="black"/>
<path d="M79.4456 14.0024C78.7637 14.0024 78.15 13.8577 77.6045 13.5684C77.0675 13.2705 76.6455 12.862 76.3387 12.3429C76.0403 11.8152 75.8912 11.2195 75.8912 10.5557C75.8912 9.89189 76.0403 9.30042 76.3387 8.78128C76.6455 8.25364 77.0675 7.84514 77.6045 7.55578C78.15 7.25792 78.7637 7.10899 79.4456 7.10899C80.1275 7.10899 80.7369 7.25792 81.2739 7.55578C81.8195 7.84514 82.2414 8.25364 82.5397 8.78128C82.8466 9.30042 83 9.89189 83 10.5557C83 11.2195 82.8466 11.8152 82.5397 12.3429C82.2414 12.862 81.8195 13.2705 81.2739 13.5684C80.7369 13.8577 80.1275 14.0024 79.4456 14.0024ZM79.4456 12.662C80.0423 12.662 80.5281 12.4705 80.9032 12.0876C81.2782 11.6961 81.4657 11.1855 81.4657 10.5557C81.4657 9.92593 81.2782 9.41956 80.9032 9.03659C80.5281 8.64512 80.0423 8.44938 79.4456 8.44938C78.8489 8.44938 78.3631 8.64512 77.988 9.03659C77.613 9.41956 77.4255 9.92593 77.4255 10.5557C77.4255 11.1855 77.613 11.6961 77.988 12.0876C78.3631 12.4705 78.8489 12.662 79.4456 12.662Z" fill="black"/>
<path d="M0 9.01476C0 4.94136 0 2.90556 1.26739 1.64016C2.53478 0.374756 4.57377 0.374756 8.65357 0.374756H9.3747C13.4545 0.374756 15.4935 0.374756 16.7609 1.64016C18.0283 2.90556 18.0283 4.94136 18.0283 9.01476V9.73476C18.0283 13.8082 18.0283 15.844 16.7609 17.1094C15.4935 18.3748 13.4545 18.3748 9.3747 18.3748H8.65357C4.57377 18.3748 2.53478 18.3748 1.26739 17.1094C0 15.844 0 13.8082 0 9.73476V9.01476Z" fill="#0077FF"/>
<path d="M10.5159 0.374756C7.18608 0.385556 5.4139 0.497156 4.2709 1.63836C3.00352 2.90376 3.00352 4.93956 3.00352 9.01296V9.73296C3.00352 13.8064 3.00352 15.8422 4.2709 17.1076C5.4139 18.2488 7.18608 18.3604 10.5159 18.3712C13.8457 18.3604 15.6179 18.2488 16.7609 17.1076C18.0283 15.8422 18.0283 13.8064 18.0283 9.73296V9.01296C18.0283 4.93956 18.0283 2.90376 16.7609 1.63836C15.6179 0.498956 13.8457 0.387356 10.5159 0.374756Z" fill="#FF2B42"/>
<path d="M12.7208 7.77456C13.633 8.30016 14.0873 8.56296 14.2405 8.90496C14.374 9.20376 14.374 9.54576 14.2405 9.84456C14.0873 10.1884 13.6312 10.4494 12.7208 10.975L10.2238 12.415C9.31161 12.9406 8.8573 13.2034 8.48231 13.1638C8.156 13.1296 7.86034 12.9586 7.66743 12.694C7.44569 12.3898 7.44569 11.8642 7.44569 10.8148V7.93476C7.44569 6.88356 7.44569 6.35796 7.66743 6.05556C7.86034 5.79096 8.156 5.61996 8.48231 5.58576C8.8555 5.54616 9.31161 5.80896 10.2238 6.33456L12.7208 7.77456Z" fill="white"/>
</svg>
