<svg width="63" height="15" viewBox="0 0 63 15" fill="none" xmlns="http://www.w3.org/2000/svg">
<path d="M19.6607 2.56521C19.4294 1.70861 18.7509 1.03352 17.8917 0.803057C16.3206 0.374756 10.0368 0.374756 10.0368 0.374756C10.0368 0.374756 3.75306 0.374756 2.18263 0.786741C1.33906 1.01721 0.644961 1.70929 0.413594 2.56589C0 4.13021 0 7.3751 0 7.3751C0 7.3751 0 10.6363 0.413594 12.1843C0.644961 13.0409 1.32336 13.716 2.18263 13.9465C3.77012 14.3748 10.0368 14.3748 10.0368 14.3748C10.0368 14.3748 16.3206 14.3748 17.891 13.9628C18.7509 13.7323 19.4287 13.0565 19.66 12.2006C20.0736 10.6356 20.0736 7.39073 20.0736 7.39073C20.0736 7.39073 20.09 4.12953 19.66 2.56453L19.6607 2.56521Z" fill="#FF0000"/>
<path d="M8.03641 4.377V10.3725L13.2616 7.3751L8.03641 4.37768V4.377Z" fill="white"/>
<path d="M29.1522 13.1232C28.7556 12.8594 28.4745 12.4481 28.3086 11.8716C28.1434 11.3114 28.0609 10.554 28.0609 9.6315V8.36291C28.0609 7.42405 28.1598 6.66671 28.3421 6.0902C28.5407 5.51369 28.8382 5.10171 29.2348 4.83861C29.6484 4.57483 30.1773 4.44362 30.8386 4.44362C31.5 4.44362 32.0125 4.57551 32.4097 4.83861C32.8063 5.10239 33.0875 5.53069 33.2697 6.0902C33.4519 6.65039 33.5509 7.40774 33.5509 8.36291V9.6315C33.5509 10.5704 33.4683 11.3114 33.2861 11.8879C33.1038 12.4481 32.8233 12.8764 32.4261 13.1395C32.0289 13.4026 31.4836 13.5345 30.8059 13.5345C30.1111 13.5182 29.5494 13.3863 29.1522 13.1225V13.1232ZM31.3846 11.7397C31.5007 11.4596 31.5498 10.9823 31.5498 10.3399V7.60557C31.5498 6.97943 31.5 6.5185 31.3846 6.22209C31.2686 5.92568 31.0871 5.79379 30.8059 5.79379C30.5411 5.79379 30.3431 5.94199 30.2435 6.22209C30.1275 6.5185 30.0783 6.97943 30.0783 7.60557V10.3399C30.0783 10.9823 30.1281 11.4596 30.2435 11.7397C30.3425 12.0198 30.5411 12.168 30.8222 12.168C31.0871 12.168 31.2686 12.0361 31.3846 11.7397Z" fill="#282828"/>
<path d="M59.6762 10.0924C59.6762 10.6526 59.6926 11.0809 59.7261 11.361C59.7588 11.6411 59.825 11.8553 59.941 11.9702C60.04 12.102 60.2059 12.168 60.4372 12.168C60.7348 12.168 60.9334 12.0524 61.0487 11.822C61.1641 11.5915 61.2139 11.2128 61.231 10.6689L62.9338 10.7675C62.9502 10.8498 62.9502 10.949 62.9502 11.0802C62.9502 11.8872 62.7352 12.497 62.2888 12.892C61.8425 13.287 61.2139 13.4848 60.4038 13.4848C59.4285 13.4848 58.7501 13.1721 58.3536 12.5623C57.957 11.9525 57.7584 11.0143 57.7584 9.7294V8.19771C57.7584 6.88018 57.957 5.925 58.3699 5.31518C58.7828 4.70536 59.4776 4.40895 60.4536 4.40895C61.1313 4.40895 61.6609 4.54084 62.0247 4.78762C62.3885 5.0344 62.6362 5.43007 62.785 5.94063C62.9338 6.46751 63 7.19222 63 8.11477V9.61382H59.6762V10.0924ZM59.924 5.95831C59.825 6.0902 59.7588 6.28803 59.7254 6.56745C59.6919 6.84686 59.6756 7.27584 59.6756 7.85235V8.47849H61.1306V7.85235C61.1306 7.29216 61.1143 6.86386 61.0808 6.56745C61.0481 6.27104 60.9648 6.0732 60.8658 5.95831C60.7669 5.84274 60.601 5.77679 60.4031 5.77679C60.1717 5.76048 60.0229 5.82642 59.9233 5.95831H59.924Z" fill="#282828"/>
<path d="M24.3235 9.48329L22.0747 1.36325H24.0423L24.8361 5.03644C25.0347 5.94267 25.1835 6.71633 25.2824 7.35878H25.3322C25.3984 6.89785 25.5472 6.13982 25.7786 5.05276L26.6051 1.36325H28.5727L26.2911 9.48329V13.3706H24.3399V9.48329H24.3235Z" fill="#282828"/>
<path d="M39.9493 4.60814V13.3869H38.3953L38.2301 12.3162H38.1803C37.7667 13.1232 37.1217 13.5352 36.2788 13.5352C35.7001 13.5352 35.2701 13.3373 34.9889 12.9586C34.7077 12.58 34.5753 11.9872 34.5753 11.1632V4.60814H36.5593V11.0483C36.5593 11.4433 36.6092 11.7234 36.6917 11.8886C36.7743 12.0538 36.9231 12.1354 37.1217 12.1354C37.2869 12.1354 37.4527 12.0857 37.6179 11.9708C37.7831 11.8723 37.8991 11.7404 37.9653 11.5758V4.60814H39.9493Z" fill="#282828"/>
<path d="M50.1185 4.60814V13.3869H48.5644L48.3993 12.3162H48.3495C47.9359 13.1232 47.2909 13.5352 46.448 13.5352C45.8693 13.5352 45.4393 13.3373 45.1581 12.9586C44.8769 12.58 44.7445 11.9872 44.7445 11.1632V4.60814H46.7285V11.0483C46.7285 11.4433 46.7783 11.7234 46.8609 11.8886C46.9435 12.0538 47.0923 12.1354 47.2909 12.1354C47.4561 12.1354 47.6219 12.0857 47.7871 11.9708C47.9522 11.8723 48.0683 11.7404 48.1345 11.5758V4.60814H50.1185Z" fill="#282828"/>
<path d="M45.3397 2.96088H43.372V13.3706H41.4371V2.96088H39.4695V1.36325H45.3397V2.96088Z" fill="#282828"/>
<path d="M56.6835 6.00793C56.5674 5.44774 56.3695 5.05275 56.1047 4.80529C55.8399 4.55783 55.4597 4.42662 54.997 4.42662C54.6332 4.42662 54.2858 4.5252 53.9719 4.73935C53.6579 4.93718 53.4095 5.21728 53.2443 5.54632H53.228V0.91863H51.3101V13.3706H52.9475L53.1461 12.5473H53.1959C53.3447 12.8438 53.576 13.0742 53.8907 13.2557C54.2046 13.4203 54.5356 13.5195 54.9158 13.5195C55.5935 13.5195 56.0733 13.2068 56.3872 12.597C56.7012 11.9871 56.867 11.0157 56.867 9.71443V8.33095C56.8507 7.32615 56.8008 6.55181 56.6848 6.00861L56.6835 6.00793ZM54.8646 9.58186C54.8646 10.2243 54.8318 10.7186 54.782 11.0809C54.7322 11.4433 54.6332 11.7071 54.5172 11.8553C54.3848 12.0035 54.2196 12.0857 54.021 12.0857C53.8559 12.0857 53.7071 12.0531 53.5747 11.9702C53.4423 11.8879 53.3269 11.7723 53.2437 11.6241V6.6497C53.3099 6.41924 53.4259 6.2214 53.5911 6.05688C53.7562 5.90868 53.9384 5.82641 54.12 5.82641C54.3186 5.82641 54.4838 5.90868 54.5827 6.05688C54.6987 6.2214 54.765 6.48518 54.8141 6.84754C54.8639 7.22621 54.8803 7.75377 54.8803 8.42885V9.58186H54.8639H54.8646Z" fill="#282828"/>
</svg>
