<svg width="72" height="13" viewBox="0 0 72 13" fill="none" xmlns="http://www.w3.org/2000/svg">
<path d="M7.20122 7.63108H2.14414V5.59843H7.2C7.49532 5.59843 7.70034 5.65108 7.80407 5.74169C7.90658 5.83353 7.97125 6.00251 7.97125 6.24986V6.97965C7.97125 7.24047 7.9078 7.40945 7.80407 7.50129C7.70156 7.59312 7.49532 7.63108 7.2 7.63108H7.20122ZM7.5478 3.6821H0V12.3748H2.14414V9.54618H6.09559L7.97125 12.3748H10.3729L8.30563 9.53271C9.06834 9.41761 9.41003 9.18006 9.69193 8.78945C9.97383 8.39884 10.1154 7.77312 10.1154 6.93802V6.28659C10.1154 5.7919 10.0641 5.40006 9.97383 5.10129C9.88353 4.80129 9.72976 4.54047 9.51132 4.30659C9.28068 4.08496 9.02319 3.92823 8.71566 3.82414C8.40691 3.73231 8.02129 3.68088 7.5478 3.68088V3.6821Z" fill="#100943"/>
<path d="M13.3749 9.807V3.68088H11.2271V9.75435C11.2271 10.249 11.2662 10.6531 11.3553 10.9531C11.4456 11.2666 11.5993 11.5274 11.8312 11.7478C12.0496 11.9817 12.3071 12.1384 12.6146 12.2303C12.9234 12.3343 13.309 12.3735 13.7972 12.3735H18.7835C19.2594 12.3735 19.645 12.3343 19.9538 12.2303C20.2625 12.1384 20.52 11.9829 20.7506 11.7478C20.9691 11.5262 21.1228 11.2654 21.2132 10.9531C21.3035 10.6531 21.3547 10.249 21.3547 9.75435V3.68088H19.2069V9.807C19.2069 10.0678 19.1435 10.2368 19.0397 10.3286C18.936 10.4205 18.731 10.4584 18.4357 10.4584H14.1449C13.8362 10.4584 13.63 10.4192 13.5275 10.3286C13.4237 10.2368 13.3737 10.0678 13.3737 9.807H13.3749Z" fill="#100943"/>
<path d="M29.1368 12.3748V5.59721H33.1932V3.68088H22.9424V5.59721H26.9988V12.3748H29.1368Z" fill="#100943"/>
<path d="M36.9275 9.807V3.68088H34.7797V9.75435C34.7797 10.249 34.8187 10.6531 34.9078 10.9531C34.9981 11.2666 35.1519 11.5274 35.3837 11.7478C35.6022 11.9817 35.8597 12.1384 36.1672 12.2303C36.4759 12.3343 36.8616 12.3735 37.3497 12.3735H42.336C42.8119 12.3735 43.1976 12.3343 43.5063 12.2303C43.8151 12.1384 44.0725 11.9829 44.3032 11.7478C44.5216 11.5262 44.6754 11.2654 44.7657 10.9531C44.856 10.6531 44.9072 10.249 44.9072 9.75435V3.68088H42.7595V9.807C42.7595 10.0678 42.696 10.2368 42.5923 10.3286C42.4898 10.4205 42.2835 10.4584 41.9882 10.4584H37.6975C37.3887 10.4584 37.1825 10.4192 37.0812 10.3286C36.9775 10.2368 36.9275 10.0678 36.9275 9.807Z" fill="#100943"/>
<path d="M48.6451 10.4584V8.89476H53.7278C54.0244 8.89476 54.2294 8.94741 54.3331 9.03802C54.4368 9.12986 54.5003 9.29884 54.5003 9.54618V9.807C54.5003 10.0678 54.4368 10.2368 54.3331 10.3286C54.2306 10.4205 54.0244 10.4584 53.7278 10.4584H48.6451ZM48.6451 7.16088V5.59721H53.2116C53.5204 5.59721 53.7266 5.64986 53.8291 5.74047C53.9328 5.83231 53.9829 6.00129 53.9829 6.24863V6.50945C53.9829 6.77027 53.9316 6.93925 53.8291 7.03108C53.7266 7.12292 53.5204 7.16088 53.2116 7.16088H48.6451ZM56.1209 6.20945V6.04047C56.1209 5.23231 55.9147 4.63231 55.5034 4.25516C55.0922 3.8768 54.4344 3.68088 53.5594 3.68088H46.4961V12.3748H54.0634C54.9384 12.3748 55.5962 12.1923 56.0074 11.8139C56.4199 11.4356 56.6249 10.8368 56.6249 10.0286V9.84618C56.6249 9.03802 56.4187 8.46496 56.0074 8.12578C55.9305 8.07312 55.8537 8.03394 55.7756 7.99598C55.6987 7.9568 55.5034 7.90414 55.3619 7.85271C55.645 7.69598 55.839 7.48782 55.9537 7.25271C56.0575 7.01761 56.1209 6.66618 56.1209 6.20945Z" fill="#100943"/>
<path d="M59.8674 5.59721H67.6068V3.68088H57.722V12.3748H67.6068V10.4584H59.8674V8.98537H66.6207V7.06904H59.8674V5.59598V5.59721Z" fill="#100943"/>
<path d="M70.3525 3.68088C71.2629 3.68088 72 2.94129 72 2.02782C72 1.11435 71.2629 0.374756 70.3525 0.374756C69.4422 0.374756 68.7051 1.11435 68.7051 2.02782C68.7051 2.94129 69.4422 3.68088 70.3525 3.68088Z" fill="#ED143B"/>
</svg>
