<svg width="32" height="33" viewBox="0 0 32 33" fill="none" xmlns="http://www.w3.org/2000/svg">
<path fill-rule="evenodd" clip-rule="evenodd" d="M28.5215 6.36756C29.8913 6.73639 30.9728 7.81676 31.3416 9.18762C32.027 11.6922 31.9998 16.9101 31.9998 16.9101C31.9998 16.9101 31.9998 22.1031 31.3405 24.6076C30.9717 25.9774 29.8913 27.0589 28.5205 27.4277C26.017 28.087 15.9999 28.087 15.9999 28.087C15.9999 28.087 6.01003 28.087 3.47938 27.4016C2.1096 27.0328 1.02815 25.9524 0.659319 24.5815C0 22.1042 0 16.8851 0 16.8851C0 16.8851 0 11.6922 0.659319 9.18762C1.02815 7.81676 2.13463 6.71028 3.47938 6.34145C5.98392 5.68213 15.9999 5.68213 15.9999 5.68213C15.9999 5.68213 26.017 5.68213 28.5215 6.36756ZM12.8112 21.682V12.0871L21.1408 16.8851L12.8112 21.682Z" fill="#666666"/>
</svg>
