<svg width="24" height="25" viewBox="0 0 24 25" fill="none" xmlns="http://www.w3.org/2000/svg">
<path d="M24 3.24609L20.1991 22.3905C20.1991 22.3905 19.669 23.7208 18.2087 23.0806L12.8059 18.9401L9.34513 22.1008C9.34513 22.1008 9.07507 22.3109 8.775 22.1808L8.77829 22.1516L9.47499 16.1998C9.47499 16.1998 19.1872 7.46776 19.5873 7.09767C19.9874 6.72759 19.8574 6.64757 19.8574 6.64757C19.8774 6.19747 19.1372 6.64757 19.1372 6.64757L6.27025 14.8256L6.25594 14.8187L0.90472 13.0183C0.90472 13.0183 0.0845327 12.7283 0.00451441 12.0881C-0.0755039 11.448 0.934727 11.1079 0.934727 11.1079L22.2496 2.74597C22.2496 2.74597 24 1.9758 24 3.24609Z" fill="#666666"/>
</svg>
