<svg width="160" height="120" viewBox="0 0 160 120" fill="none" xmlns="http://www.w3.org/2000/svg">
<g clip-path="url(#clip0_270_6102)">
<rect width="160" height="120" fill="url(#paint0_linear_270_6102)"/>
<path opacity="0.25" d="M75.4123 26.2149L97.1487 12L152.143 45.1379M83.8607 27.4022L96.6012 20.8431L160 57.6047M115.077 25.7161V93.4677M121.707 21.8985L121.559 108M58.2118 63.9866L58 96.8317L137.48 96.8606" stroke="white" stroke-miterlimit="4.77"/>
<path d="M20.592 53.232H17.904V60H14.04V43.2H17.904V49.992H20.688L25.104 43.2H29.208L23.712 51.312L29.376 60H24.96L20.592 53.232ZM39.1431 60.288C37.3991 60.288 35.8231 59.912 34.4151 59.16C33.0231 58.408 31.9271 57.376 31.1271 56.064C30.3431 54.736 29.9511 53.248 29.9511 51.6C29.9511 49.952 30.3431 48.472 31.1271 47.16C31.9271 45.832 33.0231 44.792 34.4151 44.04C35.8231 43.288 37.3991 42.912 39.1431 42.912C40.8871 42.912 42.4551 43.288 43.8471 44.04C45.2391 44.792 46.3351 45.832 47.1351 47.16C47.9351 48.472 48.3351 49.952 48.3351 51.6C48.3351 53.248 47.9351 54.736 47.1351 56.064C46.3351 57.376 45.2391 58.408 43.8471 59.16C42.4551 59.912 40.8871 60.288 39.1431 60.288ZM39.1431 56.976C40.1351 56.976 41.0311 56.752 41.8311 56.304C42.6311 55.84 43.2551 55.2 43.7031 54.384C44.1671 53.568 44.3991 52.64 44.3991 51.6C44.3991 50.56 44.1671 49.632 43.7031 48.816C43.2551 48 42.6311 47.368 41.8311 46.92C41.0311 46.456 40.1351 46.224 39.1431 46.224C38.1511 46.224 37.2551 46.456 36.4551 46.92C35.6551 47.368 35.0231 48 34.5591 48.816C34.1111 49.632 33.8871 50.56 33.8871 51.6C33.8871 52.64 34.1111 53.568 34.5591 54.384C35.0231 55.2 35.6551 55.84 36.4551 56.304C37.2551 56.752 38.1511 56.976 39.1431 56.976ZM66.6182 60L66.5942 49.944L61.6502 58.224H59.9222L54.9782 50.136V60H51.3302V43.2H54.5462L60.8342 53.64L67.0262 43.2H70.2422L70.2662 60H66.6182ZM94.3356 51.552C94.3356 53.776 93.5756 55.528 92.0556 56.808C90.5516 58.072 88.3836 58.776 85.5516 58.92V60.744H81.9756V58.896C79.1276 58.736 76.9436 58.024 75.4236 56.76C73.9196 55.48 73.1676 53.744 73.1676 51.552C73.1676 49.344 73.9196 47.616 75.4236 46.368C76.9436 45.104 79.1276 44.384 81.9756 44.208V42.48H85.5516V44.184C88.3836 44.344 90.5516 45.064 92.0556 46.344C93.5756 47.624 94.3356 49.36 94.3356 51.552ZM85.5516 55.872C87.2476 55.712 88.5116 55.28 89.3436 54.576C90.1756 53.856 90.5916 52.84 90.5916 51.528C90.5916 48.968 88.9116 47.544 85.5516 47.256V55.872ZM76.9356 51.552C76.9356 54.08 78.6156 55.52 81.9756 55.872V47.256C80.2636 47.416 78.9916 47.848 78.1596 48.552C77.3436 49.24 76.9356 50.24 76.9356 51.552ZM105.26 60.288C103.516 60.288 101.94 59.912 100.532 59.16C99.1403 58.408 98.0443 57.376 97.2443 56.064C96.4603 54.736 96.0683 53.248 96.0683 51.6C96.0683 49.952 96.4603 48.472 97.2443 47.16C98.0443 45.832 99.1403 44.792 100.532 44.04C101.94 43.288 103.516 42.912 105.26 42.912C107.004 42.912 108.572 43.288 109.964 44.04C111.356 44.792 112.452 45.832 113.252 47.16C114.052 48.472 114.452 49.952 114.452 51.6C114.452 53.248 114.052 54.736 113.252 56.064C112.452 57.376 111.356 58.408 109.964 59.16C108.572 59.912 107.004 60.288 105.26 60.288ZM105.26 56.976C106.252 56.976 107.148 56.752 107.948 56.304C108.748 55.84 109.372 55.2 109.82 54.384C110.284 53.568 110.516 52.64 110.516 51.6C110.516 50.56 110.284 49.632 109.82 48.816C109.372 48 108.748 47.368 107.948 46.92C107.148 46.456 106.252 46.224 105.26 46.224C104.268 46.224 103.372 46.456 102.572 46.92C101.772 47.368 101.14 48 100.676 48.816C100.228 49.632 100.004 50.56 100.004 51.6C100.004 52.64 100.228 53.568 100.676 54.384C101.14 55.2 101.772 55.84 102.572 56.304C103.372 56.752 104.268 56.976 105.26 56.976ZM124.719 43.2C126.207 43.2 127.495 43.448 128.583 43.944C129.687 44.44 130.535 45.144 131.127 46.056C131.719 46.968 132.015 48.048 132.015 49.296C132.015 50.528 131.719 51.608 131.127 52.536C130.535 53.448 129.687 54.152 128.583 54.648C127.495 55.128 126.207 55.368 124.719 55.368H121.335V60H117.447V43.2H124.719ZM124.503 52.2C125.671 52.2 126.559 51.952 127.167 51.456C127.775 50.944 128.079 50.224 128.079 49.296C128.079 48.352 127.775 47.632 127.167 47.136C126.559 46.624 125.671 46.368 124.503 46.368H121.335V52.2H124.503ZM146.951 46.368H141.575V60H137.735V46.368H132.383V43.2H146.951V46.368Z" fill="white"/>
<path d="M32.7666 86.7234H39.0797L37.7405 84.7464H35.2704V77.9084H32.7666V86.7234Z" fill="white"/>
<path d="M20.5362 79.1932H23.04L23.9456 77H20.8938L20.5362 79.1932Z" fill="white"/>
<path d="M14.7074 86.7234H17.2112V79.8855H19.5877L19.91 77.9084H12.3222L12 79.8855H14.7074V86.7234Z" fill="white"/>
<path d="M20.5362 86.7234H23.04V79.8135H20.5362V86.7234Z" fill="white"/>
<path d="M28.1962 77.9084H24.7082L24.1497 79.2611V86.7234H26.6417L26.6534 80.8339V79.873H28.0444C29.0813 79.873 29.5998 80.3514 29.5998 81.17C29.5998 81.9759 29.0813 82.4545 28.0444 82.4545H27.4942V84.419H28.1962C30.6114 84.419 32.1289 83.1723 32.1289 81.17C32.1289 79.1552 30.6114 77.9085 28.1962 77.9085V77.9084Z" fill="white"/>
<path fill-rule="evenodd" clip-rule="evenodd" d="M42.2859 77.6108C44.8894 77.6108 47 79.7127 47 82.3054C47 84.8982 44.8894 87 42.2859 87C39.6824 87 37.5718 84.8982 37.5718 82.3054C37.5718 79.7127 39.6824 77.6108 42.2859 77.6108ZM39.752 82.8495C39.6216 82.1117 39.7141 81.629 40.0426 81.0217C40.362 80.4311 41.0676 79.9104 41.7384 79.7928C42.3997 79.6769 42.8089 79.7332 43.3741 79.9772C43.4502 80.0101 43.5044 80.045 43.5738 80.0823C44.1669 80.4004 44.6897 81.1028 44.8078 81.7711C44.8926 82.2513 44.8891 82.5403 44.7794 82.9779C44.7099 83.2556 44.5609 83.5515 44.3955 83.7866C44.3497 83.8518 44.3228 83.8955 44.2676 83.9563C44.1079 84.1317 43.9717 84.2778 43.7732 84.4153C43.2774 84.7587 42.6989 84.9184 42.0866 84.88C41.3408 84.8333 40.5941 84.4078 40.1661 83.7973C40.0094 83.574 39.8132 83.1961 39.7519 82.8495H39.752Z" fill="white"/>
<path d="M32.7666 86.7234H39.0797L37.7405 84.7464H35.2704V77.9084H32.7666V86.7234Z" fill="white"/>
<path d="M20.5362 79.1932H23.04L23.9456 77H20.8938L20.5362 79.1932Z" fill="white"/>
<path d="M14.7074 86.7234H17.2112V79.8855H19.5877L19.91 77.9084H12.3222L12 79.8855H14.7074V86.7234Z" fill="white"/>
<path d="M20.5362 86.7234H23.04V79.8135H20.5362V86.7234Z" fill="white"/>
<path d="M28.1962 77.9084H24.7082L24.1497 79.2611V86.7234H26.6417L26.6534 80.8339V79.873H28.0444C29.0813 79.873 29.5998 80.3514 29.5998 81.17C29.5998 81.9759 29.0813 82.4545 28.0444 82.4545H27.4942V84.419H28.1962C30.6114 84.419 32.1289 83.1723 32.1289 81.17C32.1289 79.1552 30.6114 77.9085 28.1962 77.9085V77.9084Z" fill="white"/>
<path fill-rule="evenodd" clip-rule="evenodd" d="M42.2859 77.6108C44.8894 77.6108 47 79.7127 47 82.3054C47 84.8982 44.8894 87 42.2859 87C39.6824 87 37.5718 84.8982 37.5718 82.3054C37.5718 79.7127 39.6824 77.6108 42.2859 77.6108ZM39.752 82.8495C39.6216 82.1117 39.7141 81.629 40.0426 81.0217C40.362 80.4311 41.0676 79.9104 41.7384 79.7928C42.3997 79.6769 42.8089 79.7332 43.3741 79.9772C43.4502 80.0101 43.5044 80.045 43.5738 80.0823C44.1669 80.4004 44.6897 81.1028 44.8078 81.7711C44.8926 82.2513 44.8891 82.5403 44.7794 82.9779C44.7099 83.2556 44.5609 83.5515 44.3955 83.7866C44.3497 83.8518 44.3228 83.8955 44.2676 83.9563C44.1079 84.1317 43.9717 84.2778 43.7732 84.4153C43.2774 84.7587 42.6989 84.9184 42.0866 84.88C41.3408 84.8333 40.5941 84.4078 40.1661 83.7973C40.0094 83.574 39.8132 83.1961 39.7519 82.8495H39.752Z" fill="white"/>
</g>
<defs>
<linearGradient id="paint0_linear_270_6102" x1="136.976" y1="13.7954" x2="95.3522" y2="131.729" gradientUnits="userSpaceOnUse">
<stop stop-color="#8BB93A"/>
<stop offset="1" stop-color="#6D9B1F"/>
</linearGradient>
<clipPath id="clip0_270_6102">
<rect width="160" height="120" fill="white"/>
</clipPath>
</defs>
</svg>
