<svg width="24" height="25" viewBox="0 0 24 25" fill="none" xmlns="http://www.w3.org/2000/svg">
<path d="M17.9985 0.887887L14.8869 0.884766C11.3914 0.884766 9.13188 3.20362 9.13188 6.78958V9.51415H6.00158C5.73006 9.51415 5.5116 9.73262 5.5116 10.0041V13.949C5.5116 14.2174 5.73006 14.439 6.00158 14.439H9.13188V24.3948C9.13188 24.6632 9.35035 24.8848 9.62187 24.8848H13.7041C13.9756 24.8848 14.194 24.6663 14.194 24.3948V14.439H17.8518C18.1233 14.439 18.3418 14.2205 18.3418 13.949L18.3449 10.0041C18.3449 9.87618 18.2918 9.75135 18.2013 9.65772C18.1108 9.56721 17.986 9.51415 17.8549 9.51415H14.1909V7.20466C14.1909 6.09673 14.4562 5.53184 15.9012 5.53184H17.9985C18.27 5.53184 18.4885 5.31337 18.4885 5.04185V1.38099C18.4853 1.10947 18.27 0.891007 17.9985 0.887887Z" fill="white"/>
</svg>
