<svg width="480" height="138" viewBox="0 0 480 138" fill="none" xmlns="http://www.w3.org/2000/svg">
<path d="M284.799 134.183H371.379L353.012 106.9H319.137V12.5359H284.799V134.183Z" fill="white"/>
<path d="M117.068 30.2667H151.406L163.825 0H121.972L117.068 30.2667Z" fill="white"/>
<path d="M37.1305 134.183H71.4679V39.8198H104.06L108.48 12.5359H4.41886L0 39.8198H37.1305V134.183Z" fill="white"/>
<path d="M117.068 134.183H151.406V38.8268H117.068V134.183Z" fill="white"/>
<path d="M222.119 12.5359H174.284L166.624 31.2036V134.183H200.801L200.961 52.9073V39.6468H220.038C234.258 39.6468 241.369 46.25 241.369 57.546C241.369 68.6681 234.258 75.2721 220.038 75.2721H212.492V102.382H222.119C255.242 102.382 276.053 85.1778 276.053 57.546C276.053 29.7412 255.242 12.5368 222.119 12.5368V12.5359Z" fill="white"/>
<path fill-rule="evenodd" clip-rule="evenodd" d="M415.349 8.42924C451.055 8.42924 480 37.4346 480 73.2151C480 108.995 451.055 138 415.349 138C379.644 138 350.699 108.995 350.699 73.2151C350.699 37.4346 379.644 8.42924 415.349 8.42924ZM380.599 80.7233C378.81 70.5419 380.08 63.8798 384.584 55.4992C388.965 47.3486 398.641 40.1639 407.841 38.5407C416.91 36.9409 422.522 37.7179 430.273 41.0858C431.317 41.5393 432.06 42.0209 433.013 42.5351C441.147 46.9251 448.316 56.6184 449.936 65.8415C451.099 72.468 451.051 76.4559 449.547 82.4952C448.593 86.3269 446.55 90.4111 444.281 93.6556C443.652 94.5542 443.285 95.1582 442.527 95.9969C440.338 98.4177 438.469 100.434 435.746 102.332C428.947 107.07 421.014 109.273 412.617 108.744C402.388 108.099 392.148 102.227 386.278 93.8033C384.129 90.7206 381.438 85.506 380.598 80.7233H380.599Z" fill="white"/>
<path d="M284.799 134.183H371.379L353.012 106.9H319.137V12.5359H284.799V134.183Z" fill="white"/>
<path d="M117.068 30.2667H151.406L163.825 0H121.972L117.068 30.2667Z" fill="white"/>
<path d="M37.1305 134.183H71.4679V39.8198H104.06L108.48 12.5359H4.41886L0 39.8198H37.1305V134.183Z" fill="white"/>
<path d="M117.068 134.183H151.406V38.8268H117.068V134.183Z" fill="white"/>
<path d="M222.119 12.5359H174.284L166.624 31.2036V134.183H200.801L200.961 52.9073V39.6468H220.038C234.258 39.6468 241.369 46.25 241.369 57.546C241.369 68.6681 234.258 75.2721 220.038 75.2721H212.492V102.382H222.119C255.242 102.382 276.053 85.1778 276.053 57.546C276.053 29.7412 255.242 12.5368 222.119 12.5368V12.5359Z" fill="white"/>
<path fill-rule="evenodd" clip-rule="evenodd" d="M415.349 8.42924C451.055 8.42924 480 37.4346 480 73.2151C480 108.995 451.055 138 415.349 138C379.644 138 350.699 108.995 350.699 73.2151C350.699 37.4346 379.644 8.42924 415.349 8.42924ZM380.599 80.7233C378.81 70.5419 380.08 63.8798 384.584 55.4992C388.965 47.3486 398.641 40.1639 407.841 38.5407C416.91 36.9409 422.522 37.7179 430.273 41.0858C431.317 41.5393 432.06 42.0209 433.013 42.5351C441.147 46.9251 448.316 56.6184 449.936 65.8415C451.099 72.468 451.051 76.4559 449.547 82.4952C448.593 86.3269 446.55 90.4111 444.281 93.6556C443.652 94.5542 443.285 95.1582 442.527 95.9969C440.338 98.4177 438.469 100.434 435.746 102.332C428.947 107.07 421.014 109.273 412.617 108.744C402.388 108.099 392.148 102.227 386.278 93.8033C384.129 90.7206 381.438 85.506 380.598 80.7233H380.599Z" fill="white"/>
</svg>
