<svg width="22" height="24" viewBox="0 0 22 24" fill="none" xmlns="http://www.w3.org/2000/svg">
<path fill-rule="evenodd" clip-rule="evenodd" d="M6.20036 0H15.7864C18.1231 0 20.0217 1.89639 20.0217 4.20102V7.58555H18.7206V7.30899C18.7206 5.35993 17.1141 3.76644 15.1491 3.76644H6.83766C4.87266 3.76644 3.26614 5.35993 3.26614 7.30899V7.58555H1.965V4.20102C1.965 1.88322 3.87689 0 6.20036 0Z" fill="#666666"/>
<path d="M21.5353 9.36341H0.464695C0.208051 9.36341 0 9.72307 0 10.1667V20.3071C0 20.7508 0.208051 21.1105 0.464695 21.1105H21.5353C21.792 21.1105 22 20.7508 22 20.3071V10.1667C22 9.72307 21.792 9.36341 21.5353 9.36341Z" fill="#666666"/>
<path fill-rule="evenodd" clip-rule="evenodd" d="M15.1358 5.45211C16.1847 5.45211 17.0344 6.30812 17.0344 7.33533V7.58555H4.95232V7.33533C4.95232 6.29495 5.81533 5.45211 6.85094 5.45211H15.1358Z" fill="#666666"/>
<path d="M2.80629 18.9677L1.5122 22.6672C1.32908 23.1907 1.60848 23.7623 2.13624 23.9439L2.1374 23.9443C2.66516 24.1259 3.24144 23.8488 3.42455 23.3253L4.71865 19.6258C4.90176 19.1023 4.62237 18.5307 4.09461 18.3491L4.09345 18.3487C3.56569 18.1671 2.98941 18.4442 2.80629 18.9677Z" fill="#666666"/>
<path d="M19.1903 18.9677L20.4844 22.6672C20.6675 23.1907 20.3881 23.7623 19.8604 23.9439L19.8592 23.9443C19.3314 24.1259 18.7552 23.8488 18.572 23.3253L17.2779 19.6258C17.0948 19.1023 17.3742 18.5307 17.902 18.3491L17.9031 18.3487C18.4309 18.1671 19.0072 18.4442 19.1903 18.9677Z" fill="#666666"/>
</svg>
