<svg width="39" height="24" viewBox="0 0 39 24" fill="none" xmlns="http://www.w3.org/2000/svg">
<path d="M38.1841 9.16608H0.815871C0.365278 9.16608 0 9.52933 0 9.97742V20.1761C0 20.6242 0.365278 20.9874 0.815871 20.9874H38.1841C38.6347 20.9874 39 20.6242 39 20.1761V9.97742C39 9.52933 38.6347 9.16608 38.1841 9.16608Z" fill="#666666"/>
<path fill-rule="evenodd" clip-rule="evenodd" d="M8.54305 5.47149H16.8501C17.902 5.47149 18.7583 6.32305 18.7583 7.36907V7.62387H6.63485V7.36907C6.63485 6.32305 7.49118 5.47149 8.54305 5.47149Z" fill="#666666"/>
<path fill-rule="evenodd" clip-rule="evenodd" d="M22.5612 5.47149H30.8683C31.9201 5.47149 32.7765 6.32305 32.7765 7.36907V7.62387H20.653V7.36907C20.653 6.32305 21.5161 5.47149 22.5612 5.47149Z" fill="#666666"/>
<path fill-rule="evenodd" clip-rule="evenodd" d="M7.72718 0H31.2796C33.6193 0 35.5342 1.90429 35.5342 4.23102V7.62387H34.5902V7.34896C34.5902 5.38432 32.972 3.78176 31.0031 3.78176H22.6623C21.4554 3.78176 20.3833 4.38524 19.7293 5.29715C19.0752 4.37853 18.0031 3.78176 16.7962 3.78176H8.45539C6.47977 3.78176 4.86826 5.39103 4.86826 7.34896V7.62387H3.47251V4.23102C3.47251 1.90429 5.38745 0 7.72718 0Z" fill="#666666"/>
<path d="M2.9858 18.9364L1.68711 22.6586C1.50326 23.1855 1.78436 23.7611 2.31423 23.9439C2.84411 24.1268 3.4227 23.8478 3.60655 23.3209L4.90524 19.5987C5.08909 19.0718 4.808 18.4962 4.27812 18.3134C3.74824 18.1305 3.16965 18.4095 2.9858 18.9364Z" fill="#666666"/>
<path d="M36.0161 18.9364L37.3148 22.6586C37.4986 23.1855 37.2175 23.7611 36.6877 23.9439C36.1578 24.1268 35.5792 23.8478 35.3954 23.3209L34.0967 19.5987C33.9128 19.0718 34.1939 18.4962 34.7238 18.3134C35.2537 18.1305 35.8322 18.4095 36.0161 18.9364Z" fill="#666666"/>
</svg>
