<svg width="23" height="24" viewBox="0 0 23 24" fill="none" xmlns="http://www.w3.org/2000/svg">
<path fill-rule="evenodd" clip-rule="evenodd" d="M15.5918 12.5591H1.21525C0.772679 12.5591 0.358658 12.5878 0.130233 13.0179C-0.112469 13.448 -0.012533 13.9355 0.401488 14.2366C0.672743 14.4373 0.901168 14.3943 1.34374 14.3943C2.81423 14.3943 4.28472 14.3943 5.75521 14.3943C6.15495 14.3943 6.48331 14.3369 6.66891 14.5806C6.86878 14.8387 6.65463 15.2401 6.38338 15.2401H0.972551C0.972551 15.3548 1.02966 15.4982 1.05821 15.5986C1.25808 16.3011 1.45796 17.1326 1.65783 17.8065C1.8577 18.4946 2.11468 19.7849 2.44304 20.2867C2.50015 20.3728 2.55725 20.4731 2.64291 20.5591C2.71429 20.6452 2.78568 20.7455 2.87134 20.8029L2.54298 21.6918C2.48587 21.8351 2.42876 21.9785 2.37166 22.1362C2.18606 22.6523 1.98619 22.9677 2.37166 23.5556C2.5858 23.871 2.92844 24 3.32819 24C3.58517 24 3.81359 23.8566 3.97063 23.7276C4.12768 23.5986 4.24189 23.3548 4.31327 23.1685L4.68446 22.1792C4.72729 22.0502 4.7844 21.9642 4.81295 21.8351C5.04138 21.9355 5.8837 21.9785 6.1835 21.9785L17.4763 21.9498C17.5762 21.9498 17.5905 21.9211 17.6904 21.9211L17.9331 22.552C18.0759 22.9391 18.2472 23.4982 18.5327 23.7276C18.7183 23.871 18.9325 23.957 19.1324 23.9857H19.3322C19.5749 23.957 19.8176 23.8566 20.0175 23.6559C20.5886 23.0824 20.2459 22.4946 20.0603 21.9642C19.989 21.7634 19.7748 21.276 19.7463 21.1326C19.8176 21.1183 20.0603 20.9032 20.1317 20.8315C20.7171 20.2294 20.8313 19.828 21.0311 19.0108C21.3881 17.6201 21.8449 16.1147 22.1876 14.7383C22.3018 14.2509 22.2589 14.3799 22.4445 14.3082C23.0013 14.0789 23.2155 13.3047 22.7301 12.8172C22.6016 12.6882 22.3589 12.5448 22.1162 12.5448H20.5029C20.5029 11.7276 19.8605 10.8961 19.0895 10.5376C18.6755 10.3513 18.39 10.3226 17.9331 10.3226C17.5905 10.3226 17.2907 10.4373 17.0337 10.552C16.5483 10.7527 16.1057 11.1971 15.863 11.6846C15.7631 11.8853 15.606 12.3441 15.5918 12.5591Z" fill="#666666"/>
<path fill-rule="evenodd" clip-rule="evenodd" d="M2.01474 3.16846V11.2832C2.01474 11.8996 2.79995 12 2.98555 11.4839C3.02838 11.3548 2.99983 9.23298 2.99983 8.98925V3.97133C2.99983 3.36918 2.97127 2.88172 3.11404 2.42294C3.48523 1.24731 4.91289 0.645161 5.98363 1.17563C6.21206 1.29032 6.41193 1.41935 6.59752 1.5914C6.65463 1.64875 6.65463 1.66308 6.69746 1.72043C6.81167 1.84946 6.92589 2.02151 7.01155 2.17921C7.11148 2.4086 7.19714 2.681 7.22569 2.99642C6.76884 3.01075 6.15495 3.51254 5.86942 3.8853C5.59816 4.24373 5.25553 4.90323 5.25553 5.51971C4.8415 5.53405 4.88433 6.10753 5.2127 6.10753H10.2523C10.5521 6.10753 10.6378 5.53405 10.2095 5.51971C10.2095 4.94624 9.85259 4.18638 9.58133 3.87097C9.21014 3.42652 8.85322 3.11111 8.1965 2.96774C8.1965 2.23656 7.81103 1.41935 7.29708 0.917563C7.02582 0.645161 6.7974 0.487455 6.44048 0.301075C6.06929 0.114695 5.66955 0.0143369 5.2698 0H4.95572C4.3561 0.0286738 3.75648 0.229391 3.28536 0.602151C3.07121 0.759857 2.94272 0.860215 2.78568 1.06093C2.286 1.67742 2.01474 2.26523 2.01474 3.16846Z" fill="#666666"/>
<path fill-rule="evenodd" clip-rule="evenodd" d="M16.9909 6.7957C16.9909 7.6129 17.2336 8.18638 17.7618 8.73118C18.7754 9.7491 20.4173 9.72043 21.3881 8.73118C21.6308 8.48746 21.7593 8.2724 21.9163 7.95699C22.3874 7.01075 22.1162 5.77778 21.3881 5.04659C20.3887 4.04301 18.8326 4.01434 17.7475 5.01792C17.305 5.41935 16.9623 6.16487 16.9623 6.78136L16.9909 6.7957Z" fill="#666666"/>
<path fill-rule="evenodd" clip-rule="evenodd" d="M6.35482 7.85663C6.35482 8.2724 6.91161 8.22939 6.91161 7.8853C6.91161 7.52688 6.35482 7.49821 6.35482 7.85663Z" fill="#666666"/>
<path fill-rule="evenodd" clip-rule="evenodd" d="M8.53914 7.85663C8.53914 8.25806 9.09593 8.22939 9.09593 7.8853C9.09593 7.52688 8.53914 7.51254 8.53914 7.85663Z" fill="#666666"/>
<path fill-rule="evenodd" clip-rule="evenodd" d="M7.45412 7.85663C7.45412 8.25806 8.01091 8.24373 8.01091 7.85663C8.01091 7.54122 7.45412 7.48387 7.45412 7.85663Z" fill="#666666"/>
<path fill-rule="evenodd" clip-rule="evenodd" d="M8.53914 6.93907C8.53914 7.51255 9.38146 7.16846 9.01027 6.76702C8.83895 6.58065 8.53914 6.72401 8.53914 6.93907Z" fill="#666666"/>
<path fill-rule="evenodd" clip-rule="evenodd" d="M7.45412 8.75986C7.45412 9.17563 8.01091 9.10394 8.01091 8.78853C8.01091 8.41577 7.45412 8.41577 7.45412 8.75986Z" fill="#666666"/>
<path fill-rule="evenodd" clip-rule="evenodd" d="M7.45412 6.93907C7.45412 7.36918 8.01091 7.29749 8.01091 6.96774C8.01091 6.62366 7.45412 6.59498 7.45412 6.93907Z" fill="#666666"/>
<path fill-rule="evenodd" clip-rule="evenodd" d="M6.35482 6.93907C6.35482 7.24014 6.66891 7.32616 6.82595 7.15412C6.94016 7.03943 6.94016 6.88172 6.82595 6.76702C6.64035 6.58064 6.35482 6.73835 6.35482 6.93907Z" fill="#666666"/>
<path fill-rule="evenodd" clip-rule="evenodd" d="M8.53914 8.75986C8.53914 9.0466 8.85322 9.11828 9.01027 8.97491C9.15303 8.83154 9.12448 8.50179 8.79612 8.50179C8.65335 8.50179 8.53914 8.61649 8.53914 8.75986Z" fill="#666666"/>
<path fill-rule="evenodd" clip-rule="evenodd" d="M6.35482 8.75986C6.35482 9.03226 6.64035 9.13262 6.81167 8.98925C6.95444 8.86022 6.96872 8.50179 6.58325 8.50179C6.45476 8.50179 6.35482 8.63083 6.35482 8.75986Z" fill="#666666"/>
</svg>
