<svg width="91" height="26" viewBox="0 0 91 26" fill="none" xmlns="http://www.w3.org/2000/svg">
<path d="M53.9932 25.2809H70.4073L66.9252 20.1406H60.503V2.36183H53.9932V25.2809Z" fill="white"/>
<path d="M22.1942 5.70242H28.704L31.0585 0H23.1238L22.1942 5.70242Z" fill="white"/>
<path d="M7.03933 25.2809H13.5491V7.50228H19.7281L20.566 2.36183H0.837742L0 7.50228H7.03933V25.2809Z" fill="white"/>
<path d="M22.1942 25.2809H28.704V7.31519H22.1942V25.2809Z" fill="white"/>
<path d="M42.11 2.36183H33.0414L31.5891 5.87894V25.2809H38.0685L38.0989 9.96805V7.46969H41.7155C44.4115 7.46969 45.7595 8.71376 45.7595 10.842C45.7595 12.9375 44.4115 14.1817 41.7155 14.1817H40.2849V19.2894H42.11C48.3896 19.2894 52.3351 16.048 52.3351 10.842C52.3351 5.60342 48.3896 2.362 42.11 2.362V2.36183Z" fill="white"/>
<path fill-rule="evenodd" clip-rule="evenodd" d="M78.7433 1.58812C85.5125 1.58812 91 7.05289 91 13.7941C91 20.5352 85.5125 26 78.7433 26C71.9741 26 66.4866 20.5352 66.4866 13.7941C66.4866 7.05289 71.9741 1.58812 78.7433 1.58812ZM72.1551 15.2087C71.8162 13.2905 72.0568 12.0353 72.9108 10.4564C73.7413 8.92076 75.5756 7.56711 77.32 7.26129C79.0391 6.95988 80.1032 7.10627 81.5725 7.74081C81.7705 7.82625 81.9113 7.91697 82.092 8.01386C83.6341 8.84095 84.9932 10.6672 85.3003 12.4049C85.5208 13.6534 85.5118 14.4047 85.2266 15.5426C85.0457 16.2645 84.6585 17.034 84.2284 17.6453C84.1091 17.8146 84.0394 17.9284 83.8957 18.0864C83.4807 18.5425 83.1265 18.9223 82.6102 19.2799C81.3213 20.1727 79.8173 20.5877 78.2253 20.488C76.286 20.3665 74.3448 19.2602 73.2319 17.6731C72.8245 17.0923 72.3142 16.1098 72.155 15.2087H72.1551Z" fill="white"/>
<path d="M53.9932 25.2809H70.4073L66.9252 20.1406H60.503V2.36183H53.9932V25.2809Z" fill="white"/>
<path d="M22.1942 5.70242H28.704L31.0585 0H23.1238L22.1942 5.70242Z" fill="white"/>
<path d="M7.03933 25.2809H13.5491V7.50228H19.7281L20.566 2.36183H0.837742L0 7.50228H7.03933V25.2809Z" fill="white"/>
<path d="M22.1942 25.2809H28.704V7.31519H22.1942V25.2809Z" fill="white"/>
<path d="M42.11 2.36183H33.0414L31.5891 5.87894V25.2809H38.0685L38.0989 9.96805V7.46969H41.7155C44.4115 7.46969 45.7595 8.71376 45.7595 10.842C45.7595 12.9375 44.4115 14.1817 41.7155 14.1817H40.2849V19.2894H42.11C48.3896 19.2894 52.3351 16.048 52.3351 10.842C52.3351 5.60342 48.3896 2.362 42.11 2.362V2.36183Z" fill="white"/>
<path fill-rule="evenodd" clip-rule="evenodd" d="M78.7433 1.58812C85.5125 1.58812 91 7.05289 91 13.7941C91 20.5352 85.5125 26 78.7433 26C71.9741 26 66.4866 20.5352 66.4866 13.7941C66.4866 7.05289 71.9741 1.58812 78.7433 1.58812ZM72.1551 15.2087C71.8162 13.2905 72.0568 12.0353 72.9108 10.4564C73.7413 8.92076 75.5756 7.56711 77.32 7.26129C79.0391 6.95988 80.1032 7.10627 81.5725 7.74081C81.7705 7.82625 81.9113 7.91697 82.092 8.01386C83.6341 8.84095 84.9932 10.6672 85.3003 12.4049C85.5208 13.6534 85.5118 14.4047 85.2266 15.5426C85.0457 16.2645 84.6585 17.034 84.2284 17.6453C84.1091 17.8146 84.0394 17.9284 83.8957 18.0864C83.4807 18.5425 83.1265 18.9223 82.6102 19.2799C81.3213 20.1727 79.8173 20.5877 78.2253 20.488C76.286 20.3665 74.3448 19.2602 73.2319 17.6731C72.8245 17.0923 72.3142 16.1098 72.155 15.2087H72.1551Z" fill="white"/>
</svg>
