<svg width="589" height="164" viewBox="0 0 589 164" fill="none" xmlns="http://www.w3.org/2000/svg">
<path d="M349.445 164.326H455.677L433.141 130.914H391.576V15.3519H349.445V164.326Z" fill="url(#paint0_linear_2002_17034)"/>
<path d="M143.641 37.0657H185.773L201.011 0H149.657L143.641 37.0657Z" fill="url(#paint1_linear_2002_17034)"/>
<path d="M45.5586 164.326H87.6901V48.7649H127.68L133.103 15.3519H5.42182L-6.10352e-05 48.7649H45.5586V164.326Z" fill="url(#paint2_linear_2002_17034)"/>
<path d="M143.641 164.326H185.773V47.5488H143.641V164.326Z" fill="url(#paint3_linear_2002_17034)"/>
<path d="M272.537 15.3519H213.844L204.445 38.2131V164.326H246.38L246.577 64.7923V48.553H269.983C287.432 48.553 296.156 56.6395 296.156 70.473C296.156 84.0935 287.432 92.1811 269.983 92.1811H260.724V125.381H272.537C313.178 125.381 338.713 104.312 338.713 70.473C338.713 36.4222 313.178 15.353 272.537 15.353V15.3519Z" fill="url(#paint4_linear_2002_17034)"/>
<path fill-rule="evenodd" clip-rule="evenodd" d="M509.628 10.3228C553.438 10.3228 588.953 45.8438 588.953 89.662C588.953 133.479 553.438 169 509.628 169C465.818 169 430.302 133.479 430.302 89.662C430.302 45.8438 465.818 10.3228 509.628 10.3228ZM466.989 98.8568C464.795 86.3882 466.352 78.2296 471.88 67.9664C477.254 57.9849 489.126 49.1862 500.416 47.1984C511.542 45.2392 518.429 46.1908 527.938 50.3153C529.22 50.8706 530.131 51.4603 531.3 52.0901C541.281 57.4662 550.077 69.3371 552.065 80.632C553.492 88.7471 553.433 93.6308 551.587 101.027C550.417 105.719 547.911 110.721 545.127 114.694C544.355 115.795 543.904 116.534 542.974 117.561C540.288 120.526 537.995 122.995 534.654 125.319C526.312 131.122 516.578 133.82 506.275 133.172C493.724 132.382 481.16 125.191 473.958 114.875C471.321 111.1 468.018 104.714 466.988 98.8568H466.989Z" fill="url(#paint5_linear_2002_17034)"/>
<path d="M349.445 164.326H455.677L433.141 130.914H391.576V15.3519H349.445V164.326Z" fill="url(#paint6_linear_2002_17034)"/>
<path d="M143.641 37.0657H185.773L201.011 0H149.657L143.641 37.0657Z" fill="url(#paint7_linear_2002_17034)"/>
<path d="M45.5586 164.326H87.6901V48.7649H127.68L133.103 15.3519H5.42182L-6.10352e-05 48.7649H45.5586V164.326Z" fill="url(#paint8_linear_2002_17034)"/>
<path d="M143.641 164.326H185.773V47.5488H143.641V164.326Z" fill="url(#paint9_linear_2002_17034)"/>
<path d="M272.537 15.3519H213.844L204.445 38.2131V164.326H246.38L246.577 64.7923V48.553H269.983C287.432 48.553 296.156 56.6395 296.156 70.473C296.156 84.0935 287.432 92.1811 269.983 92.1811H260.724V125.381H272.537C313.178 125.381 338.713 104.312 338.713 70.473C338.713 36.4222 313.178 15.353 272.537 15.353V15.3519Z" fill="url(#paint10_linear_2002_17034)"/>
<path fill-rule="evenodd" clip-rule="evenodd" d="M509.628 10.3228C553.438 10.3228 588.953 45.8438 588.953 89.662C588.953 133.479 553.438 169 509.628 169C465.818 169 430.302 133.479 430.302 89.662C430.302 45.8438 465.818 10.3228 509.628 10.3228ZM466.989 98.8568C464.795 86.3882 466.352 78.2296 471.88 67.9664C477.254 57.9849 489.126 49.1862 500.416 47.1984C511.542 45.2392 518.429 46.1908 527.938 50.3153C529.22 50.8706 530.131 51.4603 531.3 52.0901C541.281 57.4662 550.077 69.3371 552.065 80.632C553.492 88.7471 553.433 93.6308 551.587 101.027C550.417 105.719 547.911 110.721 545.127 114.694C544.355 115.795 543.904 116.534 542.974 117.561C540.288 120.526 537.995 122.995 534.654 125.319C526.312 131.122 516.578 133.82 506.275 133.172C493.724 132.382 481.16 125.191 473.958 114.875C471.321 111.1 468.018 104.714 466.988 98.8568H466.989Z" fill="url(#paint11_linear_2002_17034)"/>
<defs>
<linearGradient id="paint0_linear_2002_17034" x1="504.204" y1="19.4285" x2="479.433" y2="202.863" gradientUnits="userSpaceOnUse">
<stop stop-color="#8BB93A"/>
<stop offset="1" stop-color="#6D9B1F"/>
</linearGradient>
<linearGradient id="paint1_linear_2002_17034" x1="504.204" y1="19.4285" x2="479.433" y2="202.863" gradientUnits="userSpaceOnUse">
<stop stop-color="#8BB93A"/>
<stop offset="1" stop-color="#6D9B1F"/>
</linearGradient>
<linearGradient id="paint2_linear_2002_17034" x1="504.204" y1="19.4285" x2="479.433" y2="202.863" gradientUnits="userSpaceOnUse">
<stop stop-color="#8BB93A"/>
<stop offset="1" stop-color="#6D9B1F"/>
</linearGradient>
<linearGradient id="paint3_linear_2002_17034" x1="504.204" y1="19.4285" x2="479.433" y2="202.863" gradientUnits="userSpaceOnUse">
<stop stop-color="#8BB93A"/>
<stop offset="1" stop-color="#6D9B1F"/>
</linearGradient>
<linearGradient id="paint4_linear_2002_17034" x1="504.204" y1="19.4285" x2="479.433" y2="202.863" gradientUnits="userSpaceOnUse">
<stop stop-color="#8BB93A"/>
<stop offset="1" stop-color="#6D9B1F"/>
</linearGradient>
<linearGradient id="paint5_linear_2002_17034" x1="504.204" y1="19.4285" x2="479.433" y2="202.863" gradientUnits="userSpaceOnUse">
<stop stop-color="#8BB93A"/>
<stop offset="1" stop-color="#6D9B1F"/>
</linearGradient>
<linearGradient id="paint6_linear_2002_17034" x1="504.204" y1="19.4285" x2="479.433" y2="202.863" gradientUnits="userSpaceOnUse">
<stop stop-color="#8BB93A"/>
<stop offset="1" stop-color="#6D9B1F"/>
</linearGradient>
<linearGradient id="paint7_linear_2002_17034" x1="504.204" y1="19.4285" x2="479.433" y2="202.863" gradientUnits="userSpaceOnUse">
<stop stop-color="#8BB93A"/>
<stop offset="1" stop-color="#6D9B1F"/>
</linearGradient>
<linearGradient id="paint8_linear_2002_17034" x1="504.204" y1="19.4285" x2="479.433" y2="202.863" gradientUnits="userSpaceOnUse">
<stop stop-color="#8BB93A"/>
<stop offset="1" stop-color="#6D9B1F"/>
</linearGradient>
<linearGradient id="paint9_linear_2002_17034" x1="504.204" y1="19.4285" x2="479.433" y2="202.863" gradientUnits="userSpaceOnUse">
<stop stop-color="#8BB93A"/>
<stop offset="1" stop-color="#6D9B1F"/>
</linearGradient>
<linearGradient id="paint10_linear_2002_17034" x1="504.204" y1="19.4285" x2="479.433" y2="202.863" gradientUnits="userSpaceOnUse">
<stop stop-color="#8BB93A"/>
<stop offset="1" stop-color="#6D9B1F"/>
</linearGradient>
<linearGradient id="paint11_linear_2002_17034" x1="504.204" y1="19.4285" x2="479.433" y2="202.863" gradientUnits="userSpaceOnUse">
<stop stop-color="#8BB93A"/>
<stop offset="1" stop-color="#6D9B1F"/>
</linearGradient>
</defs>
</svg>
