<svg width="24" height="31" viewBox="0 0 24 31" fill="none" xmlns="http://www.w3.org/2000/svg">
<path d="M23.5 29.625V7.82882L16.4563 0.625H2.5V29.625H23.5Z" stroke="black"/>
<path d="M16 1.125L16 8.125L23 8.125" stroke="black"/>
<rect width="19" height="9" transform="translate(0 17.125)" fill="#8BB841"/>
<path d="M4.512 24.125H3.462V19.512H5.233C5.793 19.512 6.22467 19.6637 6.528 19.967C6.83133 20.2703 6.983 20.6343 6.983 21.059C6.983 21.507 6.82433 21.8827 6.507 22.186C6.19433 22.4847 5.786 22.634 5.282 22.634H4.512V24.125ZM5.058 20.289H4.505V21.857H5.051C5.34967 21.857 5.57133 21.7847 5.716 21.64C5.86533 21.4953 5.94 21.3087 5.94 21.08C5.94 20.8513 5.863 20.6623 5.709 20.513C5.555 20.3637 5.338 20.289 5.058 20.289ZM10.6639 21.801C10.6639 21.3343 10.5496 20.9703 10.3209 20.709C10.0922 20.443 9.75857 20.31 9.31991 20.31H8.63391V23.32H9.36191C9.76324 23.32 10.0806 23.1893 10.3139 22.928C10.5472 22.662 10.6639 22.2863 10.6639 21.801ZM9.38991 24.125H7.59791V19.505H9.29191C10.0526 19.505 10.6406 19.7197 11.0559 20.149C11.4759 20.5737 11.6859 21.1243 11.6859 21.801C11.6859 22.4683 11.4852 23.0237 11.0839 23.467C10.6872 23.9057 10.1226 24.125 9.38991 24.125ZM13.5218 22.27V24.125H12.4788V19.505H15.6428V20.31H13.5218V21.493H15.3768V22.27H13.5218Z" fill="white"/>
</svg>
