<svg width="16" height="18" viewBox="0 0 16 18" fill="none" xmlns="http://www.w3.org/2000/svg">
<path d="M8.788 0.5C10.932 0.5 12.612 1.0181 13.828 2.05429C15.044 3.09048 15.652 4.51524 15.652 6.32857C15.652 8.14191 15.044 9.56667 13.828 10.6029C12.612 11.6229 10.932 12.1329 8.788 12.1329H4.276V17.5H2.5V12.1329H0V10.5543H2.5V0.5H8.788ZM8.74 10.5543C10.404 10.5543 11.676 10.19 12.556 9.46143C13.436 8.71667 13.876 7.67238 13.876 6.32857C13.876 4.95238 13.436 3.9 12.556 3.17143C11.676 2.42667 10.404 2.05429 8.74 2.05429H4.276V10.5543H8.74Z" fill="#666666"/>
<path d="M0 15.6746V14.096H7V15.6746H0Z" fill="#666666"/>
</svg>
