<svg width="13" height="15" viewBox="0 0 13 15" fill="none" xmlns="http://www.w3.org/2000/svg">
<path d="M7.34728 0.647461C9.11293 0.647461 10.4965 1.07413 11.4979 1.92746C12.4993 2.78079 13 3.95413 13 5.44746C13 6.94079 12.4993 8.11413 11.4979 8.96746C10.4965 9.80746 9.11293 10.2275 7.34728 10.2275H3.63152V14.6475H2.16893V10.2275H0.110107V8.92746H2.16893V0.647461H7.34728ZM7.30775 8.92746C8.67811 8.92746 9.72564 8.62746 10.4503 8.02746C11.175 7.41413 11.5374 6.55413 11.5374 5.44746C11.5374 4.31413 11.175 3.44746 10.4503 2.84746C9.72564 2.23413 8.67811 1.92746 7.30775 1.92746H3.63152V8.92746H7.30775Z" fill="#666666"/>
<path d="M0.110107 13.1442V11.8442H5.87481V13.1442H0.110107Z" fill="#666666"/>
</svg>
