<svg width="36" height="34" viewBox="0 0 36 34" fill="none" xmlns="http://www.w3.org/2000/svg">
<path d="M20.544 0C23.52 0 26.096 0.496 28.272 1.488C30.48 2.48 32.176 3.888 33.36 5.712C34.544 7.536 35.136 9.696 35.136 12.192C35.136 14.656 34.544 16.816 33.36 18.672C32.176 20.496 30.48 21.904 28.272 22.896C26.096 23.856 23.52 24.336 20.544 24.336H13.776V34H5.99997V24.336H0V18H5.99997V0H20.544ZM20.112 18C22.448 18 24.224 17.504 25.44 16.512C26.656 15.488 27.264 14.048 27.264 12.192C27.264 10.304 26.656 8.864 25.44 7.872C24.224 6.848 22.448 6.336 20.112 6.336H13.776V18H20.112Z" fill="#8BB841"/>
<path d="M20 31.336H0V27H20V31.336Z" fill="#8BB841"/>
</svg>
