<svg width="18" height="18" viewBox="0 0 18 18" fill="none" xmlns="http://www.w3.org/2000/svg">
<path d="M10.7036 0.5C12.1916 0.5 13.4796 0.748 14.5676 1.244C15.6716 1.74 16.5196 2.444 17.1116 3.356C17.7036 4.268 17.9996 5.348 17.9996 6.596C17.9996 7.828 17.7036 8.908 17.1116 9.836C16.5196 10.748 15.6716 11.452 14.5676 11.948C13.4796 12.428 12.1916 12.668 10.7036 12.668H7.31962V17.5H3.43162V12.668H0.431641V9.5H3.43162V0.5H10.7036ZM10.4876 9.5C11.6556 9.5 12.5436 9.252 13.1516 8.756C13.7596 8.244 14.0636 7.524 14.0636 6.596C14.0636 5.652 13.7596 4.932 13.1516 4.436C12.5436 3.924 11.6556 3.668 10.4876 3.668H7.31962V9.5H10.4876Z" fill="#8BB841"/>
<path d="M10.4316 16.168H0.431641V14H10.4316V16.168Z" fill="#8BB841"/>
</svg>
