<svg width="68" height="67" viewBox="0 0 68 67" fill="none" xmlns="http://www.w3.org/2000/svg">
<path opacity="0.25" d="M24.96 45.216V50.592H45.696V58.56H24.96V67.2H9.312V58.56H0V50.592H9.312V0H38.4C47.552 0 54.688 1.92 59.808 5.76C64.992 9.6 67.584 15.232 67.584 22.656C67.584 30.016 64.992 35.616 59.808 39.456C54.688 43.296 47.552 45.216 38.4 45.216H24.96ZM51.84 22.752C51.84 19.488 50.656 16.992 48.288 15.264C45.984 13.536 42.656 12.672 38.304 12.672H24.96V33.024H38.304C42.656 33.024 45.984 32.16 48.288 30.432C50.656 28.64 51.84 26.08 51.84 22.752Z" fill="white"/>
</svg>
