<svg width="1516" height="41" viewBox="0 0 1516 41" fill="none" xmlns="http://www.w3.org/2000/svg">
<rect y="0.625" width="1" height="40" fill="#8BB841"/>
<rect x="5" y="10.625" width="1" height="20" fill="#8BB841"/>
<rect x="10" y="10.625" width="1" height="20" fill="#8BB841"/>
<rect x="15" y="10.625" width="1" height="20" fill="#8BB841"/>
<rect x="20" y="10.625" width="1" height="20" fill="#8BB841"/>
<rect x="25" y="10.625" width="1" height="20" fill="#8BB841"/>
<rect x="30" y="10.625" width="1" height="20" fill="#8BB841"/>
<rect x="35" y="10.625" width="1" height="20" fill="#8BB841"/>
<rect x="40" y="10.625" width="1" height="20" fill="#8BB841"/>
<rect x="45" y="10.625" width="1" height="20" fill="#8BB841"/>
<rect x="50" y="10.625" width="1" height="20" fill="#8BB841"/>
<rect x="55" y="10.625" width="1" height="20" fill="#8BB841"/>
<rect x="60" y="10.625" width="1" height="20" fill="#8BB841"/>
<rect x="65" y="10.625" width="1" height="20" fill="#8BB841"/>
<rect x="70" y="10.625" width="1" height="20" fill="#8BB841"/>
<rect x="75" y="10.625" width="1" height="20" fill="#8BB841"/>
<rect x="80" y="10.625" width="1" height="20" fill="#8BB841"/>
<rect x="85" y="10.625" width="1" height="20" fill="#8BB841"/>
<rect x="90" y="10.625" width="1" height="20" fill="#8BB841"/>
<rect x="95" y="10.625" width="1" height="20" fill="#8BB841"/>
<rect x="100" y="10.625" width="1" height="20" fill="#8BB841"/>
<rect x="105" y="10.625" width="1" height="20" fill="#8BB841"/>
<rect x="110" y="0.625" width="1" height="40" fill="#8BB841"/>
<rect x="115" y="10.625" width="1" height="20" fill="#8BB841"/>
<rect x="120" y="10.625" width="1" height="20" fill="#8BB841"/>
<rect x="125" y="10.625" width="1" height="20" fill="#8BB841"/>
<rect x="130" y="10.625" width="1" height="20" fill="#8BB841"/>
<rect x="135" y="10.625" width="1" height="20" fill="#8BB841"/>
<rect x="140" y="10.625" width="1" height="20" fill="#8BB841"/>
<rect x="145" y="10.625" width="1" height="20" fill="#8BB841"/>
<rect x="150" y="10.625" width="1" height="20" fill="#8BB841"/>
<rect x="155" y="10.625" width="1" height="20" fill="#8BB841"/>
<rect x="160" y="10.625" width="1" height="20" fill="#8BB841"/>
<rect x="165" y="10.625" width="1" height="20" fill="#8BB841"/>
<rect x="170" y="10.625" width="1" height="20" fill="#8BB841"/>
<rect x="175" y="10.625" width="1" height="20" fill="#8BB841"/>
<rect x="180" y="10.625" width="1" height="20" fill="#8BB841"/>
<rect x="185" y="10.625" width="1" height="20" fill="#8BB841"/>
<rect x="190" y="10.625" width="1" height="20" fill="#8BB841"/>
<rect x="195" y="10.625" width="1" height="20" fill="#8BB841"/>
<rect x="200" y="10.625" width="1" height="20" fill="#8BB841"/>
<rect x="205" y="10.625" width="1" height="20" fill="#8BB841"/>
<rect x="210" y="10.625" width="1" height="20" fill="#8BB841"/>
<rect x="215" y="10.625" width="1" height="20" fill="#8BB841"/>
<rect x="220" y="10.625" width="1" height="20" fill="#8BB841"/>
<rect x="225" y="10.625" width="1" height="20" fill="#8BB841"/>
<rect x="230" y="10.625" width="1" height="20" fill="#8BB841"/>
<rect x="235" y="10.625" width="1" height="20" fill="#8BB841"/>
<rect x="240" y="10.625" width="1" height="20" fill="#8BB841"/>
<rect x="245" y="0.625" width="1" height="40" fill="#8BB841"/>
<rect x="250" y="10.625" width="1" height="20" fill="#8BB841"/>
<rect x="255" y="10.625" width="1" height="20" fill="#8BB841"/>
<rect x="260" y="10.625" width="1" height="20" fill="#8BB841"/>
<rect x="265" y="10.625" width="1" height="20" fill="#8BB841"/>
<rect x="270" y="10.625" width="1" height="20" fill="#8BB841"/>
<rect x="275" y="10.625" width="1" height="20" fill="#8BB841"/>
<rect x="280" y="10.625" width="1" height="20" fill="#8BB841"/>
<rect x="285" y="10.625" width="1" height="20" fill="#8BB841"/>
<rect x="290" y="10.625" width="1" height="20" fill="#8BB841"/>
<rect x="295" y="10.625" width="1" height="20" fill="#8BB841"/>
<rect x="300" y="10.625" width="1" height="20" fill="#8BB841"/>
<rect x="305" y="10.625" width="1" height="20" fill="#8BB841"/>
<rect x="310" y="10.625" width="1" height="20" fill="#8BB841"/>
<rect x="315" y="10.625" width="1" height="20" fill="#8BB841"/>
<rect x="320" y="10.625" width="1" height="20" fill="#8BB841"/>
<rect x="325" y="10.625" width="1" height="20" fill="#8BB841"/>
<rect x="330" y="10.625" width="1" height="20" fill="#8BB841"/>
<rect x="335" y="10.625" width="1" height="20" fill="#8BB841"/>
<rect x="340" y="10.625" width="1" height="20" fill="#8BB841"/>
<rect x="345" y="10.625" width="1" height="20" fill="#8BB841"/>
<rect x="350" y="10.625" width="1" height="20" fill="#8BB841"/>
<rect x="355" y="10.625" width="1" height="20" fill="#8BB841"/>
<rect x="360" y="10.625" width="1" height="20" fill="#8BB841"/>
<rect x="365" y="10.625" width="1" height="20" fill="#8BB841"/>
<rect x="370" y="10.625" width="1" height="20" fill="#8BB841"/>
<rect x="375" y="0.625" width="1" height="40" fill="#8BB841"/>
<rect x="380" y="10.625" width="1" height="20" fill="#8BB841"/>
<rect x="385" y="10.625" width="1" height="20" fill="#8BB841"/>
<rect x="390" y="10.625" width="1" height="20" fill="#8BB841"/>
<rect x="395" y="10.625" width="1" height="20" fill="#8BB841"/>
<rect x="400" y="10.625" width="1" height="20" fill="#8BB841"/>
<rect x="405" y="10.625" width="1" height="20" fill="#8BB841"/>
<rect x="410" y="10.625" width="1" height="20" fill="#8BB841"/>
<rect x="415" y="10.625" width="1" height="20" fill="#8BB841"/>
<rect x="420" y="10.625" width="1" height="20" fill="#8BB841"/>
<rect x="425" y="10.625" width="1" height="20" fill="#8BB841"/>
<rect x="430" y="10.625" width="1" height="20" fill="#8BB841"/>
<rect x="435" y="10.625" width="1" height="20" fill="#8BB841"/>
<rect x="440" y="10.625" width="1" height="20" fill="#8BB841"/>
<rect x="445" y="10.625" width="1" height="20" fill="#8BB841"/>
<rect x="450" y="10.625" width="1" height="20" fill="#8BB841"/>
<rect x="455" y="10.625" width="1" height="20" fill="#8BB841"/>
<rect x="460" y="10.625" width="1" height="20" fill="#8BB841"/>
<rect x="465" y="10.625" width="1" height="20" fill="#8BB841"/>
<rect x="470" y="10.625" width="1" height="20" fill="#8BB841"/>
<rect x="475" y="10.625" width="1" height="20" fill="#8BB841"/>
<rect x="480" y="10.625" width="1" height="20" fill="#8BB841"/>
<rect x="485" y="10.625" width="1" height="20" fill="#8BB841"/>
<rect x="490" y="10.625" width="1" height="20" fill="#8BB841"/>
<rect x="495" y="10.625" width="1" height="20" fill="#8BB841"/>
<rect x="500" y="10.625" width="1" height="20" fill="#8BB841"/>
<rect x="505" y="0.625" width="1" height="40" fill="#8BB841"/>
<rect x="510" y="10.625" width="1" height="20" fill="#8BB841"/>
<rect x="515" y="10.625" width="1" height="20" fill="#8BB841"/>
<rect x="520" y="10.625" width="1" height="20" fill="#8BB841"/>
<rect x="525" y="10.625" width="1" height="20" fill="#8BB841"/>
<rect x="530" y="10.625" width="1" height="20" fill="#8BB841"/>
<rect x="535" y="10.625" width="1" height="20" fill="#8BB841"/>
<rect x="540" y="10.625" width="1" height="20" fill="#8BB841"/>
<rect x="545" y="10.625" width="1" height="20" fill="#8BB841"/>
<rect x="550" y="10.625" width="1" height="20" fill="#8BB841"/>
<rect x="555" y="10.625" width="1" height="20" fill="#8BB841"/>
<rect x="560" y="10.625" width="1" height="20" fill="#8BB841"/>
<rect x="565" y="10.625" width="1" height="20" fill="#8BB841"/>
<rect x="570" y="10.625" width="1" height="20" fill="#8BB841"/>
<rect x="575" y="10.625" width="1" height="20" fill="#8BB841"/>
<rect x="580" y="10.625" width="1" height="20" fill="#8BB841"/>
<rect x="585" y="10.625" width="1" height="20" fill="#8BB841"/>
<rect x="590" y="10.625" width="1" height="20" fill="#8BB841"/>
<rect x="595" y="10.625" width="1" height="20" fill="#8BB841"/>
<rect x="600" y="10.625" width="1" height="20" fill="#8BB841"/>
<rect x="605" y="10.625" width="1" height="20" fill="#8BB841"/>
<rect x="610" y="10.625" width="1" height="20" fill="#8BB841"/>
<rect x="615" y="10.625" width="1" height="20" fill="#8BB841"/>
<rect x="620" y="10.625" width="1" height="20" fill="#8BB841"/>
<rect x="625" y="10.625" width="1" height="20" fill="#8BB841"/>
<rect x="630" y="10.625" width="1" height="20" fill="#8BB841"/>
<rect x="635" y="0.625" width="1" height="40" fill="#8BB841"/>
<rect x="640" y="10.625" width="1" height="20" fill="#8BB841"/>
<rect x="645" y="10.625" width="1" height="20" fill="#8BB841"/>
<rect x="650" y="10.625" width="1" height="20" fill="#8BB841"/>
<rect x="655" y="10.625" width="1" height="20" fill="#8BB841"/>
<rect x="660" y="10.625" width="1" height="20" fill="#8BB841"/>
<rect x="665" y="10.625" width="1" height="20" fill="#8BB841"/>
<rect x="670" y="10.625" width="1" height="20" fill="#8BB841"/>
<rect x="675" y="10.625" width="1" height="20" fill="#8BB841"/>
<rect x="680" y="10.625" width="1" height="20" fill="#8BB841"/>
<rect x="685" y="10.625" width="1" height="20" fill="#8BB841"/>
<rect x="690" y="10.625" width="1" height="20" fill="#8BB841"/>
<rect x="695" y="10.625" width="1" height="20" fill="#8BB841"/>
<rect x="700" y="10.625" width="1" height="20" fill="#8BB841"/>
<rect x="705" y="10.625" width="1" height="20" fill="#8BB841"/>
<rect x="710" y="10.625" width="1" height="20" fill="#8BB841"/>
<rect x="715" y="10.625" width="1" height="20" fill="#8BB841"/>
<rect x="720" y="10.625" width="1" height="20" fill="#8BB841"/>
<rect x="725" y="10.625" width="1" height="20" fill="#8BB841"/>
<rect x="730" y="10.625" width="1" height="20" fill="#8BB841"/>
<rect x="735" y="10.625" width="1" height="20" fill="#8BB841"/>
<rect x="740" y="10.625" width="1" height="20" fill="#8BB841"/>
<rect x="745" y="10.625" width="1" height="20" fill="#8BB841"/>
<rect x="750" y="10.625" width="1" height="20" fill="#8BB841"/>
<rect x="755" y="10.625" width="1" height="20" fill="#8BB841"/>
<rect x="760" y="10.625" width="1" height="20" fill="#8BB841"/>
<rect x="765" y="0.625" width="1" height="40" fill="#8BB841"/>
<rect x="770" y="10.625" width="1" height="20" fill="#8BB841"/>
<rect x="775" y="10.625" width="1" height="20" fill="#8BB841"/>
<rect x="780" y="10.625" width="1" height="20" fill="#8BB841"/>
<rect x="785" y="10.625" width="1" height="20" fill="#8BB841"/>
<rect x="790" y="10.625" width="1" height="20" fill="#8BB841"/>
<rect x="795" y="10.625" width="1" height="20" fill="#8BB841"/>
<rect x="800" y="10.625" width="1" height="20" fill="#8BB841"/>
<rect x="805" y="10.625" width="1" height="20" fill="#8BB841"/>
<rect x="810" y="10.625" width="1" height="20" fill="#8BB841"/>
<rect x="815" y="10.625" width="1" height="20" fill="#8BB841"/>
<rect x="820" y="10.625" width="1" height="20" fill="#8BB841"/>
<rect x="825" y="10.625" width="1" height="20" fill="#8BB841"/>
<rect x="830" y="10.625" width="1" height="20" fill="#8BB841"/>
<rect x="835" y="10.625" width="1" height="20" fill="#8BB841"/>
<rect x="840" y="10.625" width="1" height="20" fill="#8BB841"/>
<rect x="845" y="10.625" width="1" height="20" fill="#8BB841"/>
<rect x="850" y="10.625" width="1" height="20" fill="#8BB841"/>
<rect x="855" y="10.625" width="1" height="20" fill="#8BB841"/>
<rect x="860" y="10.625" width="1" height="20" fill="#8BB841"/>
<rect x="865" y="10.625" width="1" height="20" fill="#8BB841"/>
<rect x="870" y="10.625" width="1" height="20" fill="#8BB841"/>
<rect x="875" y="10.625" width="1" height="20" fill="#8BB841"/>
<rect x="880" y="10.625" width="1" height="20" fill="#8BB841"/>
<rect x="885" y="10.625" width="1" height="20" fill="#8BB841"/>
<rect x="890" y="0.625" width="1" height="40" fill="#8BB841"/>
<rect x="895" y="10.625" width="1" height="20" fill="#8BB841"/>
<rect x="900" y="10.625" width="1" height="20" fill="#8BB841"/>
<rect x="905" y="10.625" width="1" height="20" fill="#8BB841"/>
<rect x="910" y="10.625" width="1" height="20" fill="#8BB841"/>
<rect x="915" y="10.625" width="1" height="20" fill="#8BB841"/>
<rect x="920" y="10.625" width="1" height="20" fill="#8BB841"/>
<rect x="925" y="10.625" width="1" height="20" fill="#8BB841"/>
<rect x="930" y="10.625" width="1" height="20" fill="#8BB841"/>
<rect x="935" y="10.625" width="1" height="20" fill="#8BB841"/>
<rect x="940" y="10.625" width="1" height="20" fill="#8BB841"/>
<rect x="945" y="10.625" width="1" height="20" fill="#8BB841"/>
<rect x="950" y="10.625" width="1" height="20" fill="#8BB841"/>
<rect x="955" y="10.625" width="1" height="20" fill="#8BB841"/>
<rect x="960" y="10.625" width="1" height="20" fill="#8BB841"/>
<rect x="965" y="10.625" width="1" height="20" fill="#8BB841"/>
<rect x="970" y="10.625" width="1" height="20" fill="#8BB841"/>
<rect x="975" y="10.625" width="1" height="20" fill="#8BB841"/>
<rect x="980" y="10.625" width="1" height="20" fill="#8BB841"/>
<rect x="985" y="10.625" width="1" height="20" fill="#8BB841"/>
<rect x="990" y="10.625" width="1" height="20" fill="#8BB841"/>
<rect x="995" y="10.625" width="1" height="20" fill="#8BB841"/>
<rect x="1000" y="10.625" width="1" height="20" fill="#8BB841"/>
<rect x="1005" y="10.625" width="1" height="20" fill="#8BB841"/>
<rect x="1010" y="10.625" width="1" height="20" fill="#8BB841"/>
<rect x="1015" y="0.625" width="1" height="40" fill="#8BB841"/>
<rect x="1020" y="10.625" width="1" height="20" fill="#8BB841"/>
<rect x="1025" y="10.625" width="1" height="20" fill="#8BB841"/>
<rect x="1030" y="10.625" width="1" height="20" fill="#8BB841"/>
<rect x="1035" y="10.625" width="1" height="20" fill="#8BB841"/>
<rect x="1040" y="10.625" width="1" height="20" fill="#8BB841"/>
<rect x="1045" y="10.625" width="1" height="20" fill="#8BB841"/>
<rect x="1050" y="10.625" width="1" height="20" fill="#8BB841"/>
<rect x="1055" y="10.625" width="1" height="20" fill="#8BB841"/>
<rect x="1060" y="10.625" width="1" height="20" fill="#8BB841"/>
<rect x="1065" y="10.625" width="1" height="20" fill="#8BB841"/>
<rect x="1070" y="10.625" width="1" height="20" fill="#8BB841"/>
<rect x="1075" y="10.625" width="1" height="20" fill="#8BB841"/>
<rect x="1080" y="10.625" width="1" height="20" fill="#8BB841"/>
<rect x="1085" y="10.625" width="1" height="20" fill="#8BB841"/>
<rect x="1090" y="10.625" width="1" height="20" fill="#8BB841"/>
<rect x="1095" y="10.625" width="1" height="20" fill="#8BB841"/>
<rect x="1100" y="10.625" width="1" height="20" fill="#8BB841"/>
<rect x="1105" y="10.625" width="1" height="20" fill="#8BB841"/>
<rect x="1110" y="10.625" width="1" height="20" fill="#8BB841"/>
<rect x="1115" y="10.625" width="1" height="20" fill="#8BB841"/>
<rect x="1120" y="10.625" width="1" height="20" fill="#8BB841"/>
<rect x="1125" y="10.625" width="1" height="20" fill="#8BB841"/>
<rect x="1130" y="10.625" width="1" height="20" fill="#8BB841"/>
<rect x="1135" y="10.625" width="1" height="20" fill="#8BB841"/>
<rect x="1140" y="0.625" width="1" height="40" fill="#8BB841"/>
<rect x="1145" y="10.625" width="1" height="20" fill="#8BB841"/>
<rect x="1150" y="10.625" width="1" height="20" fill="#8BB841"/>
<rect x="1155" y="10.625" width="1" height="20" fill="#8BB841"/>
<rect x="1160" y="10.625" width="1" height="20" fill="#8BB841"/>
<rect x="1165" y="10.625" width="1" height="20" fill="#8BB841"/>
<rect x="1170" y="10.625" width="1" height="20" fill="#8BB841"/>
<rect x="1175" y="10.625" width="1" height="20" fill="#8BB841"/>
<rect x="1180" y="10.625" width="1" height="20" fill="#8BB841"/>
<rect x="1185" y="10.625" width="1" height="20" fill="#8BB841"/>
<rect x="1190" y="10.625" width="1" height="20" fill="#8BB841"/>
<rect x="1195" y="10.625" width="1" height="20" fill="#8BB841"/>
<rect x="1200" y="10.625" width="1" height="20" fill="#8BB841"/>
<rect x="1205" y="10.625" width="1" height="20" fill="#8BB841"/>
<rect x="1210" y="10.625" width="1" height="20" fill="#8BB841"/>
<rect x="1215" y="10.625" width="1" height="20" fill="#8BB841"/>
<rect x="1220" y="10.625" width="1" height="20" fill="#8BB841"/>
<rect x="1225" y="10.625" width="1" height="20" fill="#8BB841"/>
<rect x="1230" y="10.625" width="1" height="20" fill="#8BB841"/>
<rect x="1235" y="10.625" width="1" height="20" fill="#8BB841"/>
<rect x="1240" y="10.625" width="1" height="20" fill="#8BB841"/>
<rect x="1245" y="10.625" width="1" height="20" fill="#8BB841"/>
<rect x="1250" y="10.625" width="1" height="20" fill="#8BB841"/>
<rect x="1255" y="10.625" width="1" height="20" fill="#8BB841"/>
<rect x="1260" y="10.625" width="1" height="20" fill="#8BB841"/>
<rect x="1265" y="0.625" width="1" height="40" fill="#8BB841"/>
<rect x="1270" y="10.625" width="1" height="20" fill="#8BB841"/>
<rect x="1275" y="10.625" width="1" height="20" fill="#8BB841"/>
<rect x="1280" y="10.625" width="1" height="20" fill="#8BB841"/>
<rect x="1285" y="10.625" width="1" height="20" fill="#8BB841"/>
<rect x="1290" y="10.625" width="1" height="20" fill="#8BB841"/>
<rect x="1295" y="10.625" width="1" height="20" fill="#8BB841"/>
<rect x="1300" y="10.625" width="1" height="20" fill="#8BB841"/>
<rect x="1305" y="10.625" width="1" height="20" fill="#8BB841"/>
<rect x="1310" y="10.625" width="1" height="20" fill="#8BB841"/>
<rect x="1315" y="10.625" width="1" height="20" fill="#8BB841"/>
<rect x="1320" y="10.625" width="1" height="20" fill="#8BB841"/>
<rect x="1325" y="10.625" width="1" height="20" fill="#8BB841"/>
<rect x="1330" y="10.625" width="1" height="20" fill="#8BB841"/>
<rect x="1335" y="10.625" width="1" height="20" fill="#8BB841"/>
<rect x="1340" y="10.625" width="1" height="20" fill="#8BB841"/>
<rect x="1345" y="10.625" width="1" height="20" fill="#8BB841"/>
<rect x="1350" y="10.625" width="1" height="20" fill="#8BB841"/>
<rect x="1355" y="10.625" width="1" height="20" fill="#8BB841"/>
<rect x="1360" y="10.625" width="1" height="20" fill="#8BB841"/>
<rect x="1365" y="10.625" width="1" height="20" fill="#8BB841"/>
<rect x="1370" y="10.625" width="1" height="20" fill="#8BB841"/>
<rect x="1375" y="10.625" width="1" height="20" fill="#8BB841"/>
<rect x="1380" y="10.625" width="1" height="20" fill="#8BB841"/>
<rect x="1385" y="10.625" width="1" height="20" fill="#8BB841"/>
<rect x="1390" y="0.625" width="1" height="40" fill="#8BB841"/>
<rect x="1395" y="10.625" width="1" height="20" fill="#8BB841"/>
<rect x="1400" y="10.625" width="1" height="20" fill="#8BB841"/>
<rect x="1405" y="10.625" width="1" height="20" fill="#8BB841"/>
<rect x="1410" y="10.625" width="1" height="20" fill="#8BB841"/>
<rect x="1415" y="10.625" width="1" height="20" fill="#8BB841"/>
<rect x="1420" y="10.625" width="1" height="20" fill="#8BB841"/>
<rect x="1425" y="10.625" width="1" height="20" fill="#8BB841"/>
<rect x="1430" y="10.625" width="1" height="20" fill="#8BB841"/>
<rect x="1435" y="10.625" width="1" height="20" fill="#8BB841"/>
<rect x="1440" y="10.625" width="1" height="20" fill="#8BB841"/>
<rect x="1445" y="10.625" width="1" height="20" fill="#8BB841"/>
<rect x="1450" y="10.625" width="1" height="20" fill="#8BB841"/>
<rect x="1455" y="10.625" width="1" height="20" fill="#8BB841"/>
<rect x="1460" y="10.625" width="1" height="20" fill="#8BB841"/>
<rect x="1465" y="10.625" width="1" height="20" fill="#8BB841"/>
<rect x="1470" y="10.625" width="1" height="20" fill="#8BB841"/>
<rect x="1475" y="10.625" width="1" height="20" fill="#8BB841"/>
<rect x="1480" y="10.625" width="1" height="20" fill="#8BB841"/>
<rect x="1485" y="10.625" width="1" height="20" fill="#8BB841"/>
<rect x="1490" y="10.625" width="1" height="20" fill="#8BB841"/>
<rect x="1495" y="10.625" width="1" height="20" fill="#8BB841"/>
<rect x="1500" y="10.625" width="1" height="20" fill="#8BB841"/>
<rect x="1505" y="10.625" width="1" height="20" fill="#8BB841"/>
<rect x="1510" y="10.625" width="1" height="20" fill="#8BB841"/>
<rect x="1515" y="0.625" width="1" height="40" fill="#8BB841"/>
</svg>
