<svg width="238" height="20" viewBox="0 0 238 20" fill="none" xmlns="http://www.w3.org/2000/svg">
<rect y="5" width="2" height="10" fill="#ABACAD" fill-opacity="0.25"/>
<rect x="6" y="5" width="2" height="10" fill="#ABACAD" fill-opacity="0.25"/>
<rect x="12" y="5" width="2" height="10" fill="#ABACAD" fill-opacity="0.25"/>
<rect x="18" y="5" width="2" height="10" fill="#ABACAD" fill-opacity="0.25"/>
<rect x="24" y="5" width="2" height="10" fill="#ABACAD" fill-opacity="0.25"/>
<rect x="30" y="5" width="2" height="10" fill="#ABACAD" fill-opacity="0.25"/>
<rect x="36" y="5" width="2" height="10" fill="#ABACAD" fill-opacity="0.25"/>
<rect x="42" y="5" width="2" height="10" fill="#ABACAD" fill-opacity="0.25"/>
<rect x="48" y="5" width="2" height="10" fill="#ABACAD" fill-opacity="0.25"/>
<rect x="54" y="5" width="2" height="10" fill="#ABACAD" fill-opacity="0.25"/>
<rect x="60" y="5" width="2" height="10" fill="#ABACAD" fill-opacity="0.25"/>
<rect x="66" y="5" width="2" height="10" fill="#ABACAD" fill-opacity="0.25"/>
<rect x="72" y="5" width="2" height="10" fill="#ABACAD" fill-opacity="0.25"/>
<rect x="78" y="5" width="2" height="10" fill="#ABACAD" fill-opacity="0.25"/>
<rect x="84" y="5" width="2" height="10" fill="#ABACAD" fill-opacity="0.25"/>
<rect x="90" y="5" width="2" height="10" fill="#ABACAD" fill-opacity="0.25"/>
<rect x="96" y="5" width="2" height="10" fill="#ABACAD" fill-opacity="0.25"/>
<rect x="102" width="4" height="20" fill="#8BB841"/>
<rect x="110" y="5" width="2" height="10" fill="#ABACAD" fill-opacity="0.25"/>
<rect x="116" y="5" width="2" height="10" fill="#ABACAD" fill-opacity="0.25"/>
<rect x="122" y="5" width="2" height="10" fill="#ABACAD" fill-opacity="0.25"/>
<rect x="128" y="5" width="2" height="10" fill="#ABACAD" fill-opacity="0.25"/>
<rect x="134" y="5" width="2" height="10" fill="#ABACAD" fill-opacity="0.25"/>
<rect x="140" y="5" width="2" height="10" fill="#ABACAD" fill-opacity="0.25"/>
<rect x="146" y="5" width="2" height="10" fill="#ABACAD" fill-opacity="0.25"/>
<rect x="152" y="5" width="2" height="10" fill="#ABACAD" fill-opacity="0.25"/>
<rect x="158" y="5" width="2" height="10" fill="#ABACAD" fill-opacity="0.25"/>
<rect x="164" y="5" width="2" height="10" fill="#ABACAD" fill-opacity="0.25"/>
<rect x="170" y="5" width="2" height="10" fill="#ABACAD" fill-opacity="0.25"/>
<rect x="176" y="5" width="2" height="10" fill="#ABACAD" fill-opacity="0.25"/>
<rect x="182" y="5" width="2" height="10" fill="#ABACAD" fill-opacity="0.25"/>
<rect x="188" y="5" width="2" height="10" fill="#ABACAD" fill-opacity="0.25"/>
<rect x="194" y="5" width="2" height="10" fill="#ABACAD" fill-opacity="0.25"/>
<rect x="200" y="5" width="2" height="10" fill="#ABACAD" fill-opacity="0.25"/>
<rect x="206" y="5" width="2" height="10" fill="#ABACAD" fill-opacity="0.25"/>
<rect x="212" y="5" width="2" height="10" fill="#ABACAD" fill-opacity="0.25"/>
<rect x="218" y="5" width="2" height="10" fill="#ABACAD" fill-opacity="0.25"/>
<rect x="224" y="5" width="2" height="10" fill="#ABACAD" fill-opacity="0.25"/>
<rect x="230" y="5" width="2" height="10" fill="#ABACAD" fill-opacity="0.25"/>
<rect x="236" y="5" width="2" height="10" fill="#ABACAD" fill-opacity="0.25"/>
</svg>
