<svg width="24" height="24" viewBox="0 0 24 24" fill="none" xmlns="http://www.w3.org/2000/svg">
<path d="M21 4.56427L18.1493 19.3332C18.1493 19.3332 17.7518 20.3595 16.6565 19.8656L12.6044 16.6714L10.0088 19.1098C10.0088 19.1098 9.8063 19.2718 9.58125 19.1715L9.58371 19.1489L10.1062 14.5574C10.1062 14.5574 17.3904 7.82108 17.6905 7.53558C17.9905 7.25007 17.893 7.18834 17.893 7.18834C17.908 6.84111 17.3529 7.18834 17.3529 7.18834L7.70268 13.4973L7.69196 13.492L3.67854 12.1031C3.67854 12.1031 3.0634 11.8793 3.00339 11.3854C2.94337 10.8916 3.70105 10.6293 3.70105 10.6293L19.6872 4.17845C19.6872 4.17845 21 3.5843 21 4.56427Z" fill="white"/>
</svg>
